<svg xmlns="http://www.w3.org/2000/svg" width="40" height="41" viewBox="0 0 40 41" fill="none">
  <path d="M25.0095 2.03713V0.883972C25.0097 0.69991 24.9369 0.523278 24.807 0.392873C24.6771 0.262468 24.5007 0.188954 24.3167 0.188477L24.2888 0.188477C20.5425 0.369175 16.9995 1.94542 14.357 4.60704C11.7144 7.26866 10.1636 10.8229 10.0098 14.5705C10.0269 15.0578 10.4206 15.1849 10.6521 15.1849H11.8233C12.0016 15.1844 12.1729 15.1156 12.302 14.9925C12.431 14.8695 12.508 14.7017 12.517 14.5236C12.6805 11.4357 13.9817 8.51765 16.1697 6.33249C18.3576 4.14733 21.2772 2.84983 24.3653 2.69028C24.8536 2.62812 25.0095 2.36145 25.0095 2.03713ZM14.4692 15.1903H15.5854C15.7604 15.1891 15.9285 15.1218 16.056 15.0018C16.1835 14.8818 16.2609 14.7181 16.2727 14.5434C16.4287 12.4397 17.3386 10.463 18.8353 8.9764C20.3319 7.48983 22.3147 6.5933 24.4194 6.45154C24.5848 6.44064 24.7392 6.36505 24.8493 6.24112C24.9594 6.1172 25.0163 5.95492 25.0077 5.78938V4.64343C25.0072 4.45865 24.9334 4.28162 24.8025 4.15121C24.6716 4.02081 24.4943 3.9477 24.3095 3.94794C24.2942 3.94704 24.2788 3.94704 24.2635 3.94794C21.54 4.12847 18.9748 5.29207 17.0449 7.22231C15.1151 9.15255 13.9519 11.718 13.7719 14.4416C13.7595 14.6261 13.8209 14.8079 13.9425 14.9471C14.0642 15.0863 14.2361 15.1715 14.4205 15.184H14.4665M25.0068 8.4074V9.55785C25.0068 10.0263 24.5996 10.1957 24.4014 10.2191C23.2937 10.3545 22.263 10.8559 21.4729 11.644C20.6828 12.432 20.1785 13.4613 20.0402 14.5687C20.0202 14.7385 19.9388 14.8951 19.8114 15.0091C19.684 15.1231 19.5193 15.1866 19.3483 15.1876H18.2321C18.0483 15.1883 17.8717 15.116 17.7412 14.9866C17.6106 14.8572 17.5367 14.6813 17.5358 14.4975C17.5344 14.4753 17.5344 14.453 17.5358 14.4308C17.7102 12.7096 18.4735 11.1014 19.6967 9.878C20.9199 8.6546 22.528 7.89105 24.2491 7.7164C24.3396 7.70797 24.4309 7.71745 24.5178 7.74432C24.6046 7.77118 24.6853 7.81489 24.7552 7.87295C24.8252 7.93102 24.883 8.00229 24.9254 8.08271C24.9678 8.16313 24.9939 8.25111 25.0023 8.34163C25.0036 8.36413 25.0036 8.3867 25.0023 8.4092L25.0068 8.4074ZM38.1488 25.1642C37.8245 25.1642 37.5578 25.0074 37.4948 24.52C37.3355 21.4314 36.0382 18.5112 33.8531 16.3226C31.6681 14.1339 28.75 12.832 25.6617 12.6678C25.4836 12.659 25.3158 12.5821 25.1929 12.4529C25.0699 12.3238 25.0014 12.1523 25.0014 11.9741V10.8029C25.0014 10.5714 25.1284 10.1777 25.6149 10.1605C29.3623 10.3141 32.9167 11.8645 35.5787 14.5067C38.2407 17.1489 39.8176 20.6917 39.9992 24.438C40.0063 24.622 39.94 24.8012 39.815 24.9364C39.69 25.0715 39.5165 25.1515 39.3326 25.1588H39.3046L38.1488 25.1642ZM24.996 14.6236C24.996 14.5321 25.014 14.4415 25.0491 14.357C25.0841 14.2725 25.1355 14.1958 25.2003 14.1312C25.2651 14.0666 25.3419 14.0154 25.4265 13.9805C25.5111 13.9457 25.6018 13.9279 25.6932 13.9281C25.7088 13.9272 25.7245 13.9272 25.7401 13.9281C28.4648 14.1072 31.0317 15.2703 32.9629 17.2009C34.8941 19.1314 36.058 21.6979 36.238 24.4227C36.2502 24.607 36.1888 24.7885 36.0674 24.9276C35.946 25.0667 35.7745 25.1521 35.5903 25.1651H35.5444H34.403C34.2374 25.1737 34.0751 25.1168 33.9512 25.0067C33.8273 24.8966 33.7517 24.7422 33.7408 24.5768C33.5988 22.4719 32.7019 20.489 31.215 18.9925C29.7281 17.496 27.7511 16.5864 25.6473 16.4308C25.4726 16.4194 25.3087 16.3421 25.1888 16.2145C25.0689 16.0869 25.0019 15.9185 25.0014 15.7434L24.996 14.6236ZM31.7733 25.1642H30.6301C30.1607 25.1642 29.9922 24.7569 29.9679 24.5578C29.8324 23.4503 29.3308 22.4198 28.5428 21.6299C27.7549 20.8399 26.7256 20.3358 25.6185 20.1975C25.4486 20.1781 25.2917 20.097 25.1777 19.9696C25.0636 19.8423 25.0002 19.6775 24.9996 19.5065V18.3867C24.9991 18.2957 25.0165 18.2055 25.0509 18.1213C25.0853 18.037 25.1359 17.9604 25.1999 17.8957C25.2639 17.8311 25.34 17.7796 25.4239 17.7444C25.5078 17.7091 25.5978 17.6908 25.6887 17.6903C25.7109 17.6889 25.7332 17.6889 25.7554 17.6903C27.4763 17.8647 29.0843 18.6279 30.3075 19.851C31.5307 21.0741 32.2941 22.6819 32.4688 24.4029C32.4855 24.5855 32.4291 24.7674 32.3119 24.9084C32.1946 25.0495 32.0262 25.1382 31.8435 25.1551C31.8216 25.1565 31.7997 25.1565 31.7778 25.1551L31.7733 25.1642ZM1.84963 15.1831C2.17395 15.1831 2.44061 15.3389 2.50367 15.8263C2.66324 18.9151 3.96102 21.8354 6.14666 24.0237C8.3323 26.2121 11.2509 27.5134 14.3394 27.6768C14.5173 27.686 14.685 27.763 14.8078 27.8921C14.9306 28.0211 14.9993 28.1923 14.9998 28.3705V29.5416C14.9998 29.7741 14.8728 30.1678 14.3863 30.184C10.6386 30.0311 7.08375 28.4811 4.42135 25.8389C1.75895 23.1968 0.181755 19.6539 0.000120756 15.9074C-0.00350002 15.8164 0.0108492 15.7255 0.042349 15.64C0.0738487 15.5545 0.121882 15.4761 0.183705 15.4091C0.245528 15.3422 0.31993 15.2881 0.402661 15.2499C0.485392 15.2118 0.574832 15.1903 0.665872 15.1867H0.6947L1.84963 15.1831ZM15.0025 25.7236C15.0022 25.8151 14.984 25.9056 14.9488 25.99C14.9136 26.0744 14.8621 26.151 14.7972 26.2155C14.7324 26.28 14.6555 26.3311 14.5709 26.3659C14.4864 26.4007 14.3958 26.4184 14.3043 26.4182H14.2584C11.5347 26.2386 8.9689 25.0757 7.03835 23.146C5.10781 21.2162 3.94389 18.6509 3.7631 15.9272C3.7566 15.836 3.76813 15.7445 3.79704 15.6578C3.82595 15.5711 3.87166 15.4909 3.93157 15.4219C3.99147 15.3529 4.0644 15.2963 4.14617 15.2555C4.22794 15.2147 4.31696 15.1904 4.40813 15.184H5.59819C5.76402 15.1753 5.92656 15.2325 6.05053 15.3429C6.1745 15.4534 6.24989 15.6083 6.26034 15.7741C6.40254 17.8788 7.29946 19.8616 8.78631 21.3581C10.2732 22.8546 12.2501 23.7643 14.3539 23.92C14.5286 23.9314 14.6924 24.0087 14.8123 24.1363C14.9323 24.2639 14.9992 24.4323 14.9998 24.6074L15.0025 25.7236ZM8.22516 15.1831H9.36928C9.83864 15.1831 10.0071 15.5903 10.0314 15.7885C10.1671 16.896 10.6687 17.9266 11.4566 18.7167C12.2445 19.5068 13.2737 20.0111 14.3809 20.1497C14.5507 20.1689 14.7075 20.2498 14.8216 20.3771C14.9357 20.5043 14.9991 20.6689 14.9998 20.8398V21.9597C15 22.1432 14.9276 22.3195 14.7983 22.4498C14.6689 22.5801 14.4933 22.654 14.3097 22.6551C14.2872 22.6551 14.2656 22.6551 14.2439 22.6551C12.5228 22.4806 10.9147 21.7172 9.69141 20.494C8.46807 19.2708 7.70449 17.6628 7.52968 15.9416C7.52127 15.8507 7.53094 15.759 7.55814 15.6718C7.58534 15.5847 7.62952 15.5037 7.68814 15.4337C7.74677 15.3637 7.81867 15.306 7.8997 15.2639C7.98074 15.2218 8.06931 15.1962 8.1603 15.1885C8.18192 15.1885 8.20354 15.1885 8.22606 15.1885L8.22516 15.1831ZM15.0061 38.3362C15.0061 38.0119 15.1619 37.7452 15.6493 37.6831C18.7369 37.5232 21.6561 36.226 23.844 34.0415C26.032 31.857 27.3338 28.9399 27.4986 25.8524C27.5074 25.6743 27.5843 25.5063 27.7134 25.3833C27.8425 25.2602 28.0139 25.1914 28.1923 25.1912H29.3634C29.5949 25.1912 29.9886 25.3182 30.0058 25.8056C29.8519 29.5531 28.3013 33.1073 25.659 35.7691C23.0166 38.4308 19.4739 40.0073 15.7277 40.1885C15.5438 40.1953 15.3647 40.129 15.2296 40.004C15.0945 39.8791 15.0145 39.7057 15.007 39.5218V38.3362H15.0061ZM25.5464 25.1831C25.6378 25.1831 25.7284 25.2011 25.8128 25.2362C25.8973 25.2713 25.974 25.3227 26.0385 25.3875C26.103 25.4523 26.1541 25.5291 26.1889 25.6137C26.2236 25.6983 26.2413 25.7889 26.241 25.8804C26.241 25.8957 26.241 25.911 26.241 25.9272C26.0623 28.6522 24.8996 31.2195 22.9692 33.151C21.0388 35.0826 18.4723 36.2469 15.7475 36.4272C15.5631 36.4396 15.3814 36.3784 15.242 36.2569C15.1027 36.1355 15.0172 35.9638 15.0043 35.7795C15.0043 35.7642 15.0043 35.7488 15.0043 35.7335V34.5921C14.9956 34.4265 15.0525 34.2643 15.1626 34.1403C15.2727 34.0164 15.4272 33.9408 15.5926 33.9299C17.6972 33.788 19.6799 32.8914 21.1765 31.4049C22.6731 29.9183 23.583 27.9417 23.7392 25.838C23.7504 25.6631 23.8276 25.499 23.9553 25.3789C24.0829 25.2589 24.2514 25.1917 24.4266 25.1912L25.5464 25.1831ZM15.0061 31.9597V30.8191C15.0061 30.3506 15.4142 30.1813 15.6124 30.1578C16.7199 30.022 17.7503 29.5204 18.5403 28.7325C19.3304 27.9446 19.8348 26.9154 19.9735 25.8083C19.9931 25.6385 20.0743 25.4818 20.2016 25.3677C20.3289 25.2537 20.4936 25.1902 20.6645 25.1894H21.7843C21.9679 25.1887 22.1443 25.2608 22.2747 25.3901C22.4051 25.5193 22.4788 25.695 22.4798 25.8786C22.4798 25.9014 22.4798 25.9239 22.4798 25.9461C22.3046 27.667 21.5409 29.2748 20.3176 30.4977C19.0943 31.7207 17.4864 32.484 15.7655 32.6587C15.6746 32.667 15.583 32.6573 15.4959 32.63C15.4087 32.6028 15.3279 32.5586 15.2579 32.5C15.1879 32.4414 15.1302 32.3695 15.088 32.2886C15.0459 32.2076 15.0202 32.1191 15.0124 32.0281C15.0111 32.0062 15.0111 31.9843 15.0124 31.9624L15.0061 31.9597Z" fill="#FF5C00"/>
</svg>