<svg xmlns="http://www.w3.org/2000/svg" width="40" height="40" viewBox="0 0 40 40" fill="none">
<path d="M40 20C40 31.0457 31.0457 40 20 40C8.9543 40 0 31.0457 0 20C0 8.9543 8.9543 0 20 0C31.0457 0 40 8.9543 40 20Z" fill="black"/>
<path d="M37.5 20C37.5 29.665 29.665 37.5 20 37.5C10.335 37.5 2.5 29.665 2.5 20C2.5 10.335 10.335 2.5 20 2.5C29.665 2.5 37.5 10.335 37.5 20Z" fill="white"/>
<path d="M13.968 23.75H12.4165V20.7461H7.80156V23.75H6.25V17.7422H7.80156V19.2539H12.4165V17.7422H7.80156V16.25H12.4165V17.7422H13.968V23.75Z" fill="black"/>
<path d="M17.0676 20.7461V22.2578H21.6824V20.7461H17.0676ZM17.0676 17.7422V19.2539H21.6824V17.7422H17.0676ZM15.516 23.75V16.25H21.6824V17.7422H23.234V19.2539H21.6824V20.7461H23.234V22.2578H21.6824V23.75H15.516Z" fill="black"/>
<path d="M30.9484 23.75H26.3335V22.2578H24.782V17.7422H26.3335V16.25H30.9484V17.7422H32.5V19.2539H30.9484V17.7422H26.3335V22.2578H30.9484V20.7461H32.5V22.2578H30.9484V23.75Z" fill="black"/>
</svg>