<svg width="24" height="24" viewBox="0 0 24 24" fill="none" xmlns="http://www.w3.org/2000/svg">
<g clip-path="url(#clip0_290_4364)">
<circle cx="12" cy="12.1885" r="12" fill="#A36EFD"/>
<path d="M16.2943 6.48039C15.2596 6.36155 14.5697 6.30212 12.0252 6.30212C9.84207 6.30212 8.77806 6.38122 7.75607 6.48039C7.27833 6.5267 6.89727 6.8902 6.93236 7.37091L7.49741 15.0684L12.0248 16.6908L16.5525 15.0684L17.1176 7.37091C17.1531 6.8902 16.7708 6.53531 16.2939 6.48039H16.2943Z" fill="#4C2897"/>
<path d="M17.7095 13.1293C17.7095 13.1293 16.7447 13.7088 16.3954 13.8415C15.3461 14.2411 12.0256 14.8706 12.0256 14.8706C12.0256 14.8706 8.70461 14.2415 7.65569 13.8415C7.30646 13.7084 6.34159 13.1293 6.34159 13.1293C5.74023 12.8035 5.0691 13.2715 5.06787 13.9579C5.06583 15.0689 5.93361 16.2098 7.1041 16.929C8.42392 17.7401 10.3941 18.0765 12.0256 18.0765C13.6571 18.0765 15.6272 17.7401 16.947 16.929C18.1175 16.2098 18.9853 15.0685 18.9833 13.9579C18.982 13.2715 18.3109 12.8035 17.7095 13.1293Z" fill="#4C2897"/>
<path d="M16.7614 12.5554C16.018 12.7652 14.8589 13.3484 12.0251 13.3484C9.19129 13.3484 8.03222 12.7652 7.28888 12.5554C7.16404 12.5201 7.04205 12.6185 7.04899 12.7488L7.14976 14.5843C7.15343 14.654 7.17954 14.7196 7.2236 14.7733C7.53163 15.1462 8.91264 16.4473 12.0247 16.4473C15.1368 16.4473 16.5011 15.163 16.8205 14.7802C16.8687 14.7225 16.8964 14.6507 16.9009 14.5753L17.0012 12.7488C17.0086 12.6189 16.8862 12.5201 16.7614 12.5554Z" fill="#A36EFD"/>
</g>
<defs>
<clipPath id="clip0_290_4364">
<rect width="24" height="24" fill="white" transform="translate(0 0.188477)"/>
</clipPath>
</defs>
</svg>
