<svg width="171" height="186" viewBox="0 0 171 186" fill="none" xmlns="http://www.w3.org/2000/svg">
<path id="Art #3" fill-rule="evenodd" clip-rule="evenodd" d="M158.708 -25.2859C159.273 -24.2681 159.812 -23.2987 160.312 -22.4197L160.495 -22.0981L163.68 -15.3591L164.257 -13.7002L164.261 -13.6893C164.783 -12.2055 165.389 -10.5779 166.03 -8.85815L166.03 -8.85745C167.581 -4.69746 169.332 0.00130383 170.569 4.50752L170.57 4.50933C187.924 67.7687 160.388 134.529 103.509 166.857L103.507 166.858C76.1834 182.381 46.7088 188.189 15.5821 184.659L15.5806 184.659C14.7506 184.565 13.8169 184.435 13.048 184.329C12.7386 184.286 12.4558 184.246 12.2173 184.215L0.287002 182.627L15.8882 138.546L23.3166 139.099C49.8772 141.076 73.9433 133.902 94.3968 117.247C127.285 90.4535 138.678 44.0573 122.07 4.91164L122.069 4.90891C114.56 -12.7744 102.635 -27.9017 87.0532 -38.7364L81.0008 -42.9448L83.39 -49.9166C84.2532 -52.4353 85.1607 -54.9668 86.0407 -57.4217L86.041 -57.4225C86.3446 -58.2695 86.645 -59.1073 86.9391 -59.9324L96.377 -86.4004L106.621 -80.1269C126.268 -68.0947 142.619 -52.0047 154.696 -32.2796L154.698 -32.2766C156.083 -30.0123 157.46 -27.5323 158.707 -25.2876L158.708 -25.2859ZM131.048 1.10112C149.344 44.2235 136.831 95.2645 100.559 124.814C78.0827 143.117 51.5262 150.983 22.5983 148.83L13.4982 174.542C13.4981 174.542 13.4983 174.542 13.4982 174.542L22.5985 148.83C51.5264 150.984 78.0829 143.117 100.56 124.815C136.831 95.2648 149.344 44.2238 131.048 1.1014C130.247 -0.785513 129.399 -2.64705 128.505 -4.48135C129.399 -2.64715 130.247 -0.785688 131.048 1.10112ZM155.055 -10.4678L155.055 -10.4681L154.639 -11.6633L154.639 -11.6636L151.835 -17.5968C151.229 -18.6617 150.634 -19.7329 150.04 -20.8039" fill="#FF96C6"/>
</svg>
