<svg xmlns="http://www.w3.org/2000/svg" width="52" height="14" viewBox="0 0 52 14" fill="none">
  <path opacity="0.2" fill-rule="evenodd" clip-rule="evenodd" d="M-8.1626 7.00014L-8.0634 6.63006C-7.85668 5.79384 -7.44349 5.02709 -6.86388 4.40446C-6.28428 3.78184 -5.55808 3.32455 -4.75611 3.0772C-3.95414 2.82986 -3.10371 2.80087 -2.28764 2.99304C-1.47157 3.18522 -0.717613 3.592 -0.0993692 4.17378C0.60255 4.83231 1.10878 5.68264 1.36067 6.62595L1.4532 6.98094L1.44735 6.98094L1.56916 7.58522C1.79752 8.7411 2.29031 9.82403 3.00659 10.7439C3.08985 10.8511 3.18319 10.9595 3.26712 11.0598L3.37429 11.1869L3.38632 11.2013L3.6527 11.476L3.71938 11.533C3.77999 11.5838 3.84588 11.6414 3.91582 11.7025C4.08502 11.8495 4.27629 12.0157 4.4668 12.1537C5.76469 13.0953 7.33012 13.5639 8.91538 13.4853C10.5006 13.4067 12.0152 12.7854 13.2194 11.7197C14.3855 10.6967 15.1984 9.31156 15.5361 7.77198C15.5455 7.72941 15.5555 7.68271 15.5628 7.64357L15.5714 7.60098L15.698 6.99603L15.6753 6.99603L15.7713 6.63693C15.978 5.80071 16.3914 5.03388 16.971 4.41125C17.5506 3.78863 18.2766 3.33142 19.0786 3.08408C19.8806 2.83674 20.731 2.80775 21.5471 2.99992C22.3631 3.19209 23.1171 3.59887 23.7353 4.18066C24.4372 4.83924 24.9434 5.68946 25.1954 6.63274L25.2913 6.9988L25.3227 6.9988L25.4426 7.59143C25.6703 8.74752 26.1631 9.8306 26.88 10.7501C26.9626 10.8573 27.0559 10.9657 27.1405 11.066L27.2483 11.1931L27.2604 11.2075L27.5228 11.4821L27.5894 11.5391C27.6506 11.5899 27.7166 11.6476 27.7892 11.7087C27.9584 11.8557 28.1495 12.0219 28.3407 12.1599C29.6386 13.1015 31.2042 13.5701 32.7894 13.4915C34.3747 13.4129 35.8892 12.7916 37.0934 11.7259C38.2594 10.703 39.0721 9.31775 39.4095 7.77819C39.4195 7.73561 39.4289 7.68891 39.4369 7.64977L39.4455 7.60719L39.5694 7.01321L39.5821 7.01321L39.6813 6.64305C39.888 5.80683 40.3012 5.04008 40.8808 4.41746C41.4604 3.79483 42.1866 3.33762 42.9886 3.09028C43.7905 2.84294 44.641 2.81395 45.457 3.00612C46.2731 3.19829 47.0271 3.60508 47.6453 4.18686C48.3472 4.84539 48.8535 5.69563 49.1054 6.63894L49.2013 7.005L49.5683 7.01045C49.7016 7.01045 49.8347 7.01045 49.9679 7.01045L50.1013 7.01045L51.5 7.01045L51.3775 6.4055C51.1496 5.24949 50.6566 4.16647 49.9399 3.24678C49.8573 3.14103 49.7642 3.03117 49.6796 2.9316L49.5716 2.8052L49.5597 2.78944L49.2973 2.51953L49.2306 2.46253C49.1693 2.4124 49.1033 2.35474 49.0307 2.29363C48.8615 2.14599 48.6704 1.98053 48.4793 1.84182C47.1813 0.900276 45.6158 0.431808 44.0305 0.510534C42.4452 0.589261 40.9307 1.21064 39.7265 2.27644C38.5601 3.29931 37.7475 4.6849 37.4106 6.22486C37.4006 6.26743 37.3912 6.31482 37.3832 6.35327L37.3745 6.39586L37.2507 6.98983L37.238 6.98983L37.1387 7.35857C36.9319 8.19478 36.5187 8.96162 35.9391 9.58425C35.3595 10.2069 34.6333 10.6641 33.8314 10.9114C33.0294 11.1588 32.179 11.1877 31.3629 10.9956C30.5468 10.8034 29.793 10.3966 29.1748 9.81484C28.4731 9.15668 27.9667 8.30691 27.7146 7.3641L27.6186 6.99813L27.5874 6.99813L27.4676 6.40482C27.2395 5.24896 26.7469 4.166 26.0308 3.24611C25.9475 3.14036 25.8542 3.03042 25.7696 2.93085L25.6623 2.80453L25.6497 2.78877L25.3873 2.51886L25.3206 2.46186C25.2593 2.41173 25.1933 2.35407 25.1207 2.29295C24.9515 2.14532 24.7604 1.97985 24.5693 1.84115C23.2713 0.899604 21.7058 0.431136 20.1205 0.509863C18.5353 0.588589 17.0208 1.20997 15.8167 2.27577C14.6502 3.29861 13.8374 4.68421 13.5006 6.22418C13.4906 6.26676 13.4812 6.31415 13.4733 6.3526L13.4646 6.39518L13.3379 7.00014L13.3607 7.00014L13.2648 7.3579C13.058 8.19411 12.6447 8.96087 12.0651 9.58349C11.4855 10.2061 10.7593 10.6634 9.95731 10.9107C9.15535 11.1581 8.30491 11.1871 7.48884 10.9949C6.67277 10.8027 5.91898 10.396 5.30073 9.81417C4.59883 9.15618 4.09257 8.30635 3.84069 7.36343L3.748 7.00844L3.75467 7.00844L3.63286 6.4034C3.4042 5.24762 2.91127 4.16476 2.19526 3.24468C2.112 3.13893 2.01884 3.02908 1.93425 2.92951L1.82692 2.80319L1.81504 2.78734L1.5485 2.51752L1.48199 2.46052C1.42071 2.41039 1.35473 2.35273 1.28213 2.29161C1.11293 2.14397 0.921661 1.97843 0.731155 1.83972C-0.566959 0.898238 -2.1324 0.429796 -3.71776 0.50852C-5.30311 0.587245 -6.81777 1.20868 -8.02209 2.27443C-9.1885 3.2973 -10.0013 4.68288 -10.3382 6.22284C-10.3482 6.26542 -10.3575 6.31281 -10.3655 6.35126L-10.3741 6.39384L-10.5 6.9988L-8.1626 7.00014ZM50.782 5.99619C50.782 6.00855 50.7879 6.02161 50.7919 6.03466L50.7659 5.94128L50.782 5.99619ZM49.3231 3.26531C49.4037 3.36007 49.4844 3.45548 49.561 3.55299C49.6003 3.60311 49.6382 3.65398 49.6762 3.70479C49.6382 3.65398 49.6003 3.60311 49.561 3.55299C49.4844 3.45548 49.4037 3.36007 49.3231 3.26531ZM48.9715 2.88416L49.2026 3.12381L48.9715 2.88416L48.9222 2.84434L48.9715 2.88416ZM48.4526 2.44057C48.5347 2.50924 48.616 2.57908 48.6964 2.65004C48.6155 2.57908 48.5343 2.50924 48.4526 2.44057C48.3707 2.3719 48.2868 2.30322 48.2008 2.24417C48.2854 2.30597 48.3694 2.37259 48.4513 2.44057L48.4526 2.44057ZM25.9187 7.48221L25.9247 7.5097L25.9187 7.48221ZM26.0381 7.98489L26.0254 7.93401C26.0367 7.9759 26.0481 8.01846 26.06 8.05967L26.0381 7.98489ZM27.4968 10.7144C27.4162 10.6204 27.3357 10.5256 27.2591 10.4267C27.3357 10.5256 27.4162 10.6204 27.4968 10.7144ZM26.8727 5.99619L26.8819 6.03399L26.8574 5.94271L26.8727 5.99619ZM25.0622 2.88416L25.2933 3.12381L25.0622 2.88416L25.0129 2.84434L25.0622 2.88416ZM8.56265 12.986C9.23105 12.987 9.89574 12.8839 10.5343 12.6803C9.56377 12.9897 8.53728 13.0656 7.53389 12.9019C6.53049 12.7382 5.57695 12.3394 4.74651 11.7362C5.86375 12.5461 7.19553 12.9824 8.56135 12.986L8.56265 12.986ZM2.16794 7.98489C2.16328 7.96979 2.16006 7.95467 2.15607 7.93887L2.18729 8.05212L2.16794 7.98489ZM3.38827 10.4267C3.46487 10.5255 3.54558 10.6204 3.62684 10.7144C3.54158 10.6224 3.46097 10.5255 3.38437 10.4267L3.38827 10.4267ZM3.04058 5.99618L3.05066 6.03466L3.02464 5.93994L3.04058 5.99618ZM1.82025 3.55299C1.85955 3.6038 1.89823 3.6553 1.9362 3.7068C1.89823 3.6553 1.85957 3.6038 1.8196 3.55299C1.743 3.45548 1.66244 3.36007 1.58184 3.2653C1.65844 3.36007 1.73908 3.45547 1.81635 3.54955L1.82025 3.55299ZM-0.160027 1.84592C-0.946644 1.39909 -1.8129 1.12116 -2.70656 1.02881C-1.81427 1.1217 -0.949497 1.39961 -0.164093 1.84592L-0.160027 1.84592ZM-3.31607 0.995115C-4.49158 0.984257 -5.64867 1.29619 -6.66857 1.89881C-5.64985 1.29689 -4.49413 0.984989 -3.31998 0.995115L-3.31607 0.995115Z" fill="#5326EC"/>
</svg>