<svg width="32" height="158" viewBox="0 0 32 158" fill="none" xmlns="http://www.w3.org/2000/svg">
<path fill-rule="evenodd" clip-rule="evenodd" d="M16.0244 151.902L15.1136 151.651C13.0545 151.127 11.1663 150.08 9.63313 148.613C8.09994 147.145 6.97396 145.306 6.36487 143.275C5.75579 141.244 5.68437 139.091 6.15755 137.024C6.63072 134.957 7.63239 133.048 9.06496 131.483C10.6869 129.704 12.7816 128.422 15.1054 127.785L15.9783 127.552L15.9783 127.568L17.4665 127.258C20.3109 126.68 22.9756 125.432 25.2387 123.618C25.502 123.408 25.77 123.172 26.0158 122.958L26.3293 122.686L26.365 122.655L27.0335 121.99L27.1724 121.815C27.2991 121.661 27.441 121.493 27.5899 121.316C27.9519 120.887 28.3617 120.403 28.6992 119.918C31.0183 116.631 32.1725 112.667 31.9791 108.653C31.7857 104.638 30.2557 100.802 27.6313 97.7528C25.1127 94.7995 21.7016 92.741 17.9102 91.8866C17.8063 91.8627 17.6895 91.8383 17.5938 91.8179C17.5529 91.8097 17.5179 91.8021 17.4899 91.7963L15.9993 91.476L15.9993 91.5342L15.1166 91.2908C13.0573 90.7673 11.169 89.7207 9.6357 88.253C8.10241 86.7852 6.9764 84.9463 6.3673 82.9153C5.7582 80.8844 5.68677 78.7307 6.16004 76.6641C6.63331 74.5974 7.63515 72.6883 9.06789 71.1227C10.6894 69.3455 12.7829 68.0637 15.1054 67.426L16.0063 67.1837L16.0063 67.1039L17.4659 66.8011C20.3102 66.2222 22.9748 64.9742 25.2381 63.161C25.5014 62.9507 25.7695 62.7148 26.0153 62.5005L26.3288 62.2285L26.3644 62.1982L27.0329 61.5325L27.1718 61.3578C27.2985 61.2034 27.4404 61.0363 27.5893 60.8592C27.9513 60.4306 28.3611 59.9466 28.6986 59.4614C31.0177 56.1747 32.1719 52.2103 31.9785 48.1957C31.7851 44.181 30.2551 40.3453 27.6307 37.2956C25.1122 34.3423 21.701 32.2839 17.9096 31.4295C17.8057 31.4056 17.689 31.3811 17.5932 31.3607C17.5523 31.3525 17.5173 31.3456 17.4893 31.3392L16.0262 31.0252L16.0262 30.9932L15.1153 30.7416C13.0561 30.2182 11.1678 29.1717 9.63449 27.704C8.10118 26.2363 6.97513 24.3974 6.36602 22.3665C5.75691 20.3356 5.68555 18.1819 6.15883 16.1153C6.63212 14.0487 7.63392 12.1396 9.06668 10.5741C10.6886 8.797 12.7826 7.51536 15.1054 6.878L16.0063 6.63574L16.0186 5.70385C16.0215 5.36721 16.0215 5.02766 16.0215 4.69801L16.0215 4.36137L16.0262 0.811523L14.5356 1.12079C11.6914 1.69991 9.02687 2.94787 6.76342 4.76093C6.50303 4.97118 6.23209 5.20763 5.98629 5.42138C5.87535 5.51864 5.77146 5.61068 5.67512 5.69396L5.63713 5.72425L4.97154 6.38996L4.83263 6.56468L4.82971 6.56468C4.70593 6.71902 4.56402 6.88676 4.41456 7.06381C4.05023 7.49248 3.64272 7.97648 3.30117 8.46164C0.982429 11.7486 -0.17122 15.713 0.0227195 19.7276C0.216659 23.7422 1.7471 27.5776 4.37194 30.6268C6.89106 33.5805 10.3032 35.6389 14.0954 36.4924C14.1993 36.5169 14.3155 36.5414 14.4118 36.5612L14.5157 36.5833L15.9754 36.8972L15.9754 36.9293L16.8839 37.1803C18.9431 37.7037 20.8313 38.7503 22.3646 40.2181C23.8979 41.6859 25.024 43.5248 25.6331 45.5557C26.2422 47.5867 26.3136 49.7404 25.8403 51.807C25.367 53.8736 24.3653 55.7827 22.9325 57.3484C21.3115 59.1253 19.2186 60.4073 16.8967 61.0456L15.9958 61.2879L15.9958 61.3677L14.5362 61.6711C11.6921 62.2503 9.02761 63.498 6.76399 65.3107C6.50359 65.5209 6.23266 65.7568 5.98686 65.9712C5.87592 66.0678 5.77202 66.1604 5.67569 66.2431L5.63777 66.274L4.97218 66.9391L4.8332 67.1139L4.83028 67.1139C4.7065 67.2682 4.56459 67.4353 4.41513 67.613C4.0508 68.0417 3.64329 68.5257 3.30174 69.0108C0.983096 72.2978 -0.170513 76.2622 0.0234264 80.2768C0.217365 84.2913 1.74776 88.1267 4.37251 91.176C6.8914 94.1301 10.3036 96.1887 14.096 97.0422C14.1999 97.0666 14.3161 97.0911 14.4124 97.1109C14.4503 97.1191 14.486 97.1261 14.5163 97.133L16.0069 97.4528L16.0069 97.3945L16.8873 97.638C18.9466 98.1615 20.8348 99.208 22.3681 100.676C23.9014 102.144 25.0275 103.983 25.6366 106.013C26.2457 108.044 26.3171 110.198 25.8438 112.265C25.3706 114.331 24.3687 116.24 22.936 117.806C21.3154 119.584 19.2223 120.866 16.9002 121.503L16.0244 121.736L16.0244 121.72L14.5338 122.029C11.6897 122.609 9.02522 123.857 6.76164 125.669C6.50124 125.88 6.23037 126.116 5.98457 126.33C5.87364 126.427 5.76967 126.519 5.67333 126.602L5.63542 126.632L4.96982 127.298L4.83084 127.473L4.82792 127.473C4.70415 127.627 4.56231 127.795 4.41284 127.972C4.04852 128.4 3.641 128.884 3.29945 129.37C0.980764 132.657 -0.172934 136.621 0.0210033 140.636C0.21494 144.65 1.74543 148.486 4.37022 151.535C6.88945 154.489 10.3014 156.547 14.0936 157.402C14.1975 157.425 14.3137 157.45 14.41 157.47L14.514 157.492L16.0046 157.812L16.0244 151.902ZM13.5518 2.6339C13.5833 2.62517 13.6149 2.61761 13.6464 2.60888C13.5699 2.62984 13.4929 2.65137 13.417 2.6735C13.4619 2.65778 13.5069 2.6438 13.5518 2.63099L13.5518 2.6339ZM6.82764 6.32765C7.06118 6.1238 7.29473 5.91993 7.53585 5.72482C7.29589 5.91935 7.06059 6.1238 6.82764 6.32765ZM4.79642 8.5321C4.96457 8.32417 5.13795 8.11916 5.31136 7.91473C5.1362 8.11974 4.96457 8.32243 4.79642 8.5321C4.62828 8.74177 4.46475 8.95201 4.31178 9.17275C4.46475 8.9491 4.62828 8.73769 4.79642 8.52918L4.79642 8.5321ZM17.2114 65.5972C17.2342 65.5926 17.2569 65.5867 17.2791 65.5821C17.2569 65.5821 17.2342 65.5897 17.2114 65.5943L17.2114 65.5972ZM18.4492 65.295C18.4077 65.3066 18.3656 65.3165 18.3242 65.3276C18.4281 65.299 18.5314 65.2693 18.6342 65.2402C18.5723 65.2554 18.5111 65.2746 18.4492 65.2909L18.4492 65.295ZM25.171 61.6007C24.9374 61.8051 24.7039 62.0083 24.4628 62.2034C24.7056 62.0095 24.9386 61.8051 25.171 61.6007ZM13.5524 63.1819C13.5833 63.1732 13.6149 63.1656 13.6458 63.1569C13.5705 63.1778 13.4952 63.1988 13.4205 63.2209C13.4642 63.2052 13.508 63.1942 13.5518 63.179L13.5524 63.1819ZM30.7649 109.55C30.7675 107.857 30.5139 106.174 30.0128 104.557C30.7743 107.015 30.9606 109.614 30.5575 112.155C30.1543 114.696 29.1725 117.111 27.6874 119.214C29.6828 116.383 30.757 113.008 30.7642 109.547L30.7649 109.55ZM18.4497 125.751C18.4124 125.762 18.3744 125.771 18.3371 125.781C18.4305 125.755 18.5232 125.729 18.6161 125.702C18.56 125.715 18.5052 125.732 18.4492 125.746L18.4497 125.751ZM24.4633 122.66C24.7062 122.465 24.9392 122.261 25.1716 122.057C24.9386 122.258 24.7062 122.464 24.4633 122.66ZM13.5524 123.541C13.5839 123.532 13.6166 123.524 13.6482 123.516C13.5699 123.537 13.4923 123.559 13.4146 123.581C13.4601 123.565 13.5057 123.551 13.5518 123.538L13.5524 123.541ZM7.53877 126.632C7.29881 126.826 7.06351 127.031 6.83056 127.235C7.06059 127.028 7.29589 126.823 7.53585 126.629L7.53877 126.632ZM3.33502 131.646C2.23503 133.638 1.55068 135.832 1.32312 138.095C1.54921 135.831 2.23238 133.636 3.33152 131.643L3.33502 131.646ZM1.23959 139.638C1.21337 142.615 1.98132 145.545 3.46466 148.129C1.97951 145.545 1.21034 142.613 1.2361 139.635L1.23959 139.638Z" fill="#B9A7FF"/>
</svg>
