<svg xmlns="http://www.w3.org/2000/svg" width="31" height="82" viewBox="0 0 31 82" fill="none">
  <path opacity="0.2" fill-rule="evenodd" clip-rule="evenodd" d="M15.4997 144.345L16.3822 144.105C18.3762 143.605 20.2046 142.605 21.6894 141.203C23.1741 139.801 24.2645 138.044 24.8544 136.104C25.4442 134.163 25.5133 132.106 25.055 130.131C24.5968 128.157 23.6268 126.333 22.2394 124.837C20.6691 123.139 18.6414 121.914 16.392 121.305L15.5454 121.081V121.095L14.1045 120.8C11.3481 120.248 8.76577 119.056 6.57214 117.323C6.31669 117.121 6.05804 116.896 5.81897 116.692L5.51594 116.433L5.48156 116.404L4.82653 115.76L4.69061 115.598C4.56944 115.452 4.43197 115.292 4.28624 115.123C3.93582 114.714 3.53958 114.251 3.21045 113.79C0.965012 110.65 -0.152384 106.863 0.0350513 103.027C0.222488 99.192 1.70398 95.5279 4.24526 92.6144C6.68467 89.7932 9.98782 87.8265 13.6591 87.0093C13.7606 86.9868 13.872 86.9625 13.9653 86.9448L14.0669 86.924L15.5095 86.6179V86.6726L16.3658 86.4404C18.3598 85.9403 20.1884 84.9402 21.6732 83.538C23.1579 82.1357 24.2481 80.3792 24.838 78.4389C25.4278 76.4987 25.4969 74.4412 25.0387 72.4668C24.5804 70.4924 23.6104 68.6684 22.2231 67.1726C20.6526 65.4745 18.6251 64.2498 16.3758 63.6402L15.5029 63.4081V63.3322L14.0897 63.0422C11.3328 62.4913 8.7501 61.2989 6.55735 59.5645C6.3019 59.3647 6.04325 59.1389 5.80418 58.9342L5.50115 58.6734L5.46677 58.6443L4.81194 58.0092L4.67602 57.8483C4.55484 57.7001 4.41718 57.5404 4.27145 57.3648C3.92103 56.9554 3.52479 56.4931 3.19566 56.0306C0.95022 52.8905 -0.167175 49.1028 0.0202599 45.2675C0.207695 41.4322 1.68919 37.7681 4.23047 34.8546C6.66981 32.0336 9.97306 30.0674 13.6443 29.2511C13.7458 29.2269 13.8572 29.2044 13.9505 29.185L14.0521 29.1642L15.4685 28.8644V28.8337L16.3512 28.5937C18.3452 28.0935 20.1737 27.0939 21.6584 25.6916C23.1431 24.2894 24.2334 22.5324 24.8232 20.5922C25.413 18.6519 25.4821 16.5944 25.0239 14.62C24.5656 12.6457 23.5956 10.8216 22.2083 9.32584C20.6379 7.62765 18.6104 6.4029 16.361 5.79349L15.4881 5.56136L15.4751 4.67335C15.4751 4.35104 15.4751 4.02896 15.4751 3.70665V3.38403V0L16.9177 0.296265C19.6743 0.847803 22.2569 2.04054 24.45 3.77432C24.7022 3.97416 24.9641 4.19956 25.2016 4.40423L25.503 4.66548L25.5406 4.6942L26.1842 5.32922L26.3201 5.49054C26.4397 5.6388 26.5772 5.79842 26.7229 5.97408C27.0749 6.38341 27.4695 6.84574 27.8003 7.30825C30.0455 10.4485 31.1626 14.236 30.9749 18.0714C30.7871 21.9067 29.3054 25.571 26.7639 28.4843C24.3247 31.3062 21.0206 33.2723 17.3484 34.0873C17.2469 34.1115 17.1339 34.1341 17.0422 34.1535L16.9407 34.1747L15.5243 34.4741V34.5048L14.645 34.7452C12.6509 35.2453 10.8223 36.245 9.33757 37.6472C7.85285 39.0495 6.76258 40.8065 6.17277 42.7467C5.58295 44.6869 5.51382 46.7444 5.97208 48.7188C6.43033 50.6932 7.40036 52.5169 8.78768 54.0126C10.3571 55.7103 12.3835 56.9354 14.6318 57.5454L15.5045 57.7775V57.853L16.9193 58.143C19.6756 58.6947 22.258 59.8864 24.4516 61.6191C24.7038 61.8206 24.9659 62.0463 25.2034 62.251L25.5046 62.5107L25.5422 62.541L26.1858 63.176L26.3217 63.3373C26.4413 63.4855 26.5788 63.6452 26.7245 63.8208C27.0765 64.2302 27.4711 64.6925 27.8019 65.155C30.0471 68.2952 31.1642 72.0828 30.9765 75.9181C30.7887 79.7534 29.307 83.4173 26.7655 86.3307C24.3264 89.1527 21.0223 91.1191 17.35 91.9341C17.2485 91.9583 17.1355 91.9809 17.0438 92.0002L16.9422 92.021L15.4997 92.3275V92.2725L14.6466 92.5046C12.6525 93.0047 10.8241 94.0048 9.33937 95.407C7.85465 96.8093 6.76418 98.5663 6.17437 100.506C5.58455 102.447 5.51542 104.504 5.97368 106.479C6.43193 108.453 7.40196 110.277 8.78928 111.772C10.3583 113.471 12.3849 114.695 14.6334 115.305L15.4799 115.529V115.513L16.9227 115.808C19.6787 116.361 22.2609 117.553 24.455 119.286C24.7072 119.487 24.9691 119.712 25.2066 119.917L25.5078 120.177L25.5456 120.206L26.189 120.85L26.3249 121.011C26.4445 121.16 26.582 121.319 26.7277 121.495C27.0797 121.904 27.4745 122.367 27.8053 122.828C30.0504 125.968 31.1674 129.756 30.9797 133.591C30.7919 137.427 29.3101 141.091 26.7687 144.005C24.3295 146.827 21.0254 148.793 17.3532 149.609C17.2517 149.633 17.1387 149.655 17.047 149.675L16.9454 149.695L15.5029 150L15.4997 144.345ZM17.8937 1.73706C17.8642 1.73706 17.8331 1.72273 17.802 1.71306L18.0246 1.77601L17.8937 1.73706ZM24.4058 5.26666C24.1798 5.07167 23.9523 4.87638 23.7198 4.69105C23.6003 4.59597 23.479 4.50435 23.3578 4.41249C23.479 4.50435 23.6003 4.59597 23.7198 4.69105C23.9523 4.87638 24.1798 5.07167 24.4058 5.26666ZM25.3147 6.11729L24.7432 5.55821L25.3147 6.11729L25.4096 6.23651L25.3147 6.11729ZM26.3725 7.37278C26.2087 7.17402 26.0422 6.97747 25.873 6.783C26.0422 6.97854 26.2087 7.1751 26.3725 7.37278C26.5362 7.571 26.7 7.77394 26.8408 7.98183C26.6935 7.77717 26.5346 7.57415 26.3725 7.37593V7.37278ZM14.3501 61.8902L14.2846 61.8756L14.3501 61.8902ZM13.1514 61.6014L13.2727 61.6321C13.1728 61.6047 13.0714 61.5773 12.9731 61.5483L13.1514 61.6014ZM6.6425 58.0722C6.86683 58.2672 7.09291 58.4621 7.32871 58.6474C7.09291 58.4621 6.86683 58.2672 6.6425 58.0722ZM17.8937 59.5822L17.8036 59.5598L18.0212 59.6192L17.8937 59.5822ZM25.3147 63.9625L24.7432 63.4034L25.3147 63.9625L25.4096 64.0817L25.3147 63.9625ZM1.22578 103.881C1.22335 102.264 1.46912 100.655 1.95456 99.1105C1.21675 101.459 1.03593 103.942 1.42626 106.37C1.81659 108.797 2.76768 111.104 4.20608 113.113C2.27474 110.41 1.23425 107.188 1.22578 103.884V103.881ZM13.1514 119.352C13.1874 119.363 13.2235 119.371 13.2611 119.38L12.9911 119.305L13.1514 119.352ZM7.32871 116.399C7.09291 116.214 6.86683 116.019 6.6425 115.822C6.86192 116.028 7.09291 116.223 7.32871 116.409V116.399ZM17.8937 117.241L17.802 117.216L18.0278 117.279L17.8937 117.241ZM23.7198 120.193C23.5986 120.098 23.4758 120.004 23.353 119.912C23.4758 120.004 23.5986 120.098 23.7198 120.195C23.9523 120.38 24.1798 120.575 24.4058 120.77C24.1798 120.584 23.9523 120.389 23.728 120.202L23.7198 120.193ZM27.7905 124.984C28.856 126.887 29.5188 128.983 29.739 131.145C29.5175 128.986 28.8548 126.894 27.7905 124.994V124.984ZM29.8193 132.62C29.8452 135.464 29.1014 138.263 27.6644 140.73C29.0997 138.266 29.8435 135.47 29.8193 132.629V132.62Z" fill="#2FC8E0"/>
</svg>