<svg width="86" height="26" viewBox="0 0 86 26" fill="none" xmlns="http://www.w3.org/2000/svg">
<path d="M-0.339844 25.9999L7.36381 12.8408L0.131809 0.656458H5.9803L10.3195 8.32869L14.643 0.656458H20.4915L13.2438 12.8251L20.9631 25.9999H15.1147L10.3038 17.4945L5.50865 25.9999H-0.339844ZM39.8613 25.9999L38.2577 22.4625H28.1172L26.4978 25.9999H20.9952L33.1009 0.0275879H33.2581L45.3796 25.9999H39.8613ZM30.0981 18.1233H36.2767L33.1953 11.3473L30.0981 18.1233ZM54.6561 0.656458C62.8471 0.640736 67.8467 5.45159 67.8467 13.3597C67.8467 21.2205 62.8471 25.9999 54.6561 25.9999H47.2826V0.672179L54.6561 0.656458ZM54.6875 20.9218C59.6713 20.9218 62.7056 18.0604 62.7056 13.3439C62.7056 8.59594 59.6556 5.70314 54.6404 5.70314H52.3607V20.9218H54.6875ZM85.786 5.67169H75.5981V10.624H84.3395V15.7021H75.5981V20.9375H85.786V25.9999H70.5042V0.656458H85.786V5.67169Z" fill="#101010"/>
</svg>
