<svg width="1169" height="191" viewBox="0 0 1169 191" fill="none" xmlns="http://www.w3.org/2000/svg">
<path d="M95.2751 95.2752C109.244 116.228 123.265 137.261 136.295 154.205C145.293 165.905 154.182 176.13 162.144 182.541C166.984 186.438 172.257 189.55 176.92 189.55C181.316 189.55 184.35 186.783 186.338 182.374C188.533 177.506 189.55 170.42 189.55 161.938C189.55 144.152 185.075 119.787 176.973 95.4341C171.972 80.4034 165.585 65.3585 157.995 51.8257C150.8 38.9979 142.594 27.65 133.559 18.9455C121.58 7.40534 108.653 1 95.2751 1C81.8977 1 68.9704 7.40534 56.9917 18.9455C47.9563 27.65 39.7498 38.9979 32.5554 51.8257C24.9657 65.3585 18.578 80.4034 13.5775 95.4341C5.47561 119.787 0.999994 144.152 0.999993 161.938C0.999993 170.42 2.0175 177.506 4.21232 182.374C6.20012 186.783 9.23446 189.55 13.6305 189.55C18.2936 189.55 23.5662 186.438 28.4065 182.541C36.3684 176.13 45.2576 165.905 54.2556 154.205C67.2849 137.261 81.3064 116.228 95.2751 95.2752ZM95.2751 95.2752C109.244 74.322 123.265 53.2891 136.295 36.3457C145.293 24.645 154.182 14.4205 162.144 8.00974C166.984 4.11231 172.257 1.00001 176.92 1.00001C181.316 1.00001 184.35 3.76765 186.338 8.17623C188.533 13.044 189.55 20.1307 189.55 28.6125C189.55 46.3988 185.075 70.7631 176.973 95.1162C171.972 110.147 165.585 125.192 157.995 138.725C150.8 151.552 142.594 162.9 133.559 171.605C121.58 183.145 108.653 189.55 95.2751 189.55C81.8977 189.55 68.9704 183.145 56.9917 171.605C47.9563 162.9 39.7498 151.552 32.5554 138.725C24.9657 125.192 18.578 110.147 13.5775 95.1162C5.47562 70.763 0.999998 46.3988 0.999999 28.6125C0.999999 20.1307 2.01751 13.044 4.21233 8.17623C6.20012 3.76764 9.23447 1 13.6305 1C18.2936 1 23.5662 4.11231 28.4065 8.00973C36.3684 14.4204 45.2576 24.645 54.2556 36.3457C67.285 53.2891 81.3064 74.322 95.2751 95.2752Z" stroke="#404040" stroke-linecap="round" stroke-linejoin="round"/>
<path d="M258.459 95.2752C272.427 116.228 286.449 137.261 299.478 154.205C308.476 165.905 317.366 176.13 325.327 182.541C330.168 186.438 335.44 189.55 340.103 189.55C344.499 189.55 347.534 186.783 349.522 182.374C351.716 177.506 352.734 170.42 352.734 161.938C352.734 144.152 348.258 119.787 340.156 95.4341C335.156 80.4034 328.768 65.3585 321.178 51.8257C313.984 38.9979 305.778 27.65 296.742 18.9455C284.763 7.40534 271.836 1 258.459 1C245.081 1 232.154 7.40534 220.175 18.9455C211.14 27.65 202.933 38.9979 195.739 51.8257C188.149 65.3585 181.762 80.4034 176.761 95.4341C168.659 119.787 164.184 144.152 164.184 161.938C164.184 170.42 165.201 177.506 167.396 182.374C169.384 186.783 172.418 189.55 176.814 189.55C181.477 189.55 186.75 186.438 191.59 182.541C199.552 176.13 208.441 165.905 217.439 154.205C230.469 137.261 244.49 116.228 258.459 95.2752ZM258.459 95.2752C272.427 74.322 286.449 53.2891 299.478 36.3457C308.476 24.645 317.366 14.4205 325.327 8.00974C330.168 4.11231 335.44 1.00001 340.103 1.00001C344.499 1.00001 347.534 3.76765 349.522 8.17623C351.716 13.044 352.734 20.1307 352.734 28.6125C352.734 46.3988 348.258 70.7631 340.156 95.1162C335.156 110.147 328.768 125.192 321.178 138.725C313.984 151.552 305.778 162.9 296.742 171.605C284.763 183.145 271.836 189.55 258.459 189.55C245.081 189.55 232.154 183.145 220.175 171.605C211.14 162.9 202.933 151.552 195.739 138.725C188.149 125.192 181.762 110.147 176.761 95.1162C168.659 70.763 164.184 46.3988 164.184 28.6125C164.184 20.1307 165.201 13.044 167.396 8.17623C169.384 3.76764 172.418 1 176.814 1C181.477 1 186.75 4.11231 191.59 8.00973C199.552 14.4204 208.441 24.645 217.439 36.3457C230.469 53.2891 244.49 74.322 258.459 95.2752Z" stroke="#404040" stroke-linecap="round" stroke-linejoin="round"/>
<path d="M421.641 95.2752C435.61 116.228 449.631 137.261 462.66 154.205C471.658 165.905 480.548 176.13 488.509 182.541C493.35 186.438 498.622 189.55 503.285 189.55C507.682 189.55 510.716 186.783 512.704 182.374C514.898 177.506 515.916 170.42 515.916 161.938C515.916 144.152 511.44 119.787 503.338 95.4341C498.338 80.4034 491.95 65.3585 484.361 51.8257C477.166 38.9979 468.96 27.65 459.924 18.9455C447.946 7.40534 435.018 1 421.641 1C408.263 1 395.336 7.40534 383.357 18.9455C374.322 27.65 366.116 38.9979 358.921 51.8257C351.331 65.3585 344.944 80.4034 339.943 95.4341C331.841 119.787 327.366 144.152 327.366 161.938C327.366 170.42 328.383 177.506 330.578 182.374C332.566 186.783 335.6 189.55 339.996 189.55C344.659 189.55 349.932 186.438 354.772 182.541C362.734 176.13 371.623 165.905 380.621 154.205C393.651 137.261 407.672 116.228 421.641 95.2752ZM421.641 95.2752C435.61 74.322 449.631 53.2891 462.66 36.3457C471.658 24.645 480.548 14.4205 488.509 8.00974C493.35 4.11231 498.622 1.00001 503.286 1.00001C507.682 1.00001 510.716 3.76765 512.704 8.17623C514.898 13.044 515.916 20.1307 515.916 28.6125C515.916 46.3988 511.44 70.7631 503.338 95.1162C498.338 110.147 491.95 125.192 484.361 138.725C477.166 151.552 468.96 162.9 459.924 171.605C447.946 183.145 435.018 189.55 421.641 189.55C408.263 189.55 395.336 183.145 383.357 171.605C374.322 162.9 366.116 151.552 358.921 138.725C351.331 125.192 344.944 110.147 339.943 95.1162C331.841 70.763 327.366 46.3988 327.366 28.6125C327.366 20.1307 328.383 13.044 330.578 8.17623C332.566 3.76764 335.6 1 339.996 1C344.659 1 349.932 4.11231 354.772 8.00973C362.734 14.4204 371.623 24.645 380.621 36.3457C393.651 53.2891 407.672 74.322 421.641 95.2752Z" stroke="#404040" stroke-linecap="round" stroke-linejoin="round"/>
<path d="M584.824 95.2752C598.793 116.228 612.814 137.261 625.844 154.205C634.842 165.905 643.731 176.13 651.693 182.541C656.533 186.438 661.806 189.55 666.469 189.55C670.865 189.55 673.899 186.783 675.887 182.374C678.082 177.506 679.099 170.42 679.099 161.938C679.099 144.152 674.624 119.787 666.522 95.4341C661.521 80.4034 655.134 65.3585 647.544 51.8257C640.35 38.9979 632.143 27.65 623.108 18.9455C611.129 7.40534 598.202 1 584.824 1C571.447 1 558.519 7.40534 546.541 18.9455C537.505 27.65 529.299 38.9979 522.104 51.8257C514.515 65.3585 508.127 80.4034 503.127 95.4341C495.025 119.787 490.549 144.152 490.549 161.938C490.549 170.42 491.567 177.506 493.761 182.374C495.749 186.783 498.784 189.55 503.18 189.55C507.843 189.55 513.115 186.438 517.956 182.541C525.917 176.13 534.807 165.905 543.805 154.205C556.834 137.261 570.855 116.228 584.824 95.2752ZM584.824 95.2752C598.793 74.322 612.814 53.2891 625.844 36.3457C634.842 24.645 643.731 14.4205 651.693 8.00974C656.533 4.11231 661.806 1.00001 666.469 1.00001C670.865 1.00001 673.899 3.76765 675.887 8.17623C678.082 13.044 679.099 20.1307 679.099 28.6125C679.099 46.3988 674.624 70.7631 666.522 95.1162C661.521 110.147 655.134 125.192 647.544 138.725C640.35 151.552 632.143 162.9 623.108 171.605C611.129 183.145 598.202 189.55 584.824 189.55C571.447 189.55 558.519 183.145 546.541 171.605C537.505 162.9 529.299 151.552 522.104 138.725C514.515 125.192 508.127 110.147 503.127 95.1162C495.025 70.763 490.549 46.3988 490.549 28.6125C490.549 20.1307 491.567 13.044 493.761 8.17623C495.749 3.76764 498.784 1 503.18 1C507.843 1 513.115 4.11231 517.956 8.00973C525.917 14.4204 534.807 24.645 543.805 36.3457C556.834 53.2891 570.855 74.322 584.824 95.2752Z" stroke="#404040" stroke-linecap="round" stroke-linejoin="round"/>
<path d="M748.008 95.2752C761.977 116.228 775.998 137.261 789.028 154.205C798.026 165.905 806.915 176.13 814.877 182.541C819.717 186.438 824.99 189.55 829.653 189.55C834.049 189.55 837.083 186.783 839.071 182.374C841.266 177.506 842.283 170.42 842.283 161.938C842.283 144.152 837.808 119.787 829.706 95.4341C824.705 80.4034 818.318 65.3585 810.728 51.8257C803.533 38.9979 795.327 27.65 786.291 18.9455C774.313 7.40534 761.386 1 748.008 1C734.631 1 721.703 7.40534 709.725 18.9455C700.689 27.65 692.483 38.9979 685.288 51.8257C677.699 65.3585 671.311 80.4034 666.31 95.4341C658.209 119.787 653.733 144.152 653.733 161.938C653.733 170.42 654.75 177.506 656.945 182.374C658.933 186.783 661.967 189.55 666.363 189.55C671.027 189.55 676.299 186.438 681.139 182.541C689.101 176.13 697.99 165.905 706.988 154.205C720.018 137.261 734.039 116.228 748.008 95.2752ZM748.008 95.2752C761.977 74.322 775.998 53.2891 789.028 36.3457C798.026 24.645 806.915 14.4205 814.877 8.00974C819.717 4.11231 824.99 1.00001 829.653 1.00001C834.049 1.00001 837.083 3.76765 839.071 8.17623C841.266 13.044 842.283 20.1307 842.283 28.6125C842.283 46.3988 837.808 70.7631 829.706 95.1162C824.705 110.147 818.318 125.192 810.728 138.725C803.533 151.552 795.327 162.9 786.291 171.605C774.313 183.145 761.386 189.55 748.008 189.55C734.631 189.55 721.703 183.145 709.725 171.605C700.689 162.9 692.483 151.552 685.288 138.725C677.699 125.192 671.311 110.147 666.31 95.1162C658.209 70.763 653.733 46.3988 653.733 28.6125C653.733 20.1307 654.75 13.044 656.945 8.17623C658.933 3.76764 661.967 1 666.363 1C671.027 1 676.299 4.11231 681.139 8.00973C689.101 14.4204 697.99 24.645 706.988 36.3457C720.018 53.2891 734.039 74.322 748.008 95.2752Z" stroke="#404040" stroke-linecap="round" stroke-linejoin="round"/>
<path d="M910.823 95.2752C924.791 116.228 938.813 137.261 951.842 154.205C960.84 165.905 969.73 176.13 977.691 182.541C982.532 186.438 987.804 189.55 992.467 189.55C996.863 189.55 999.898 186.783 1001.89 182.374C1004.08 177.506 1005.1 170.42 1005.1 161.938C1005.1 144.152 1000.62 119.787 992.52 95.4341C987.52 80.4034 981.132 65.3585 973.542 51.8257C966.348 38.9979 958.142 27.65 949.106 18.9455C937.128 7.40534 924.2 1 910.823 1C897.445 1 884.518 7.40534 872.539 18.9455C863.504 27.65 855.297 38.9979 848.103 51.8257C840.513 65.3585 834.126 80.4034 829.125 95.4341C821.023 119.787 816.548 144.152 816.548 161.938C816.548 170.42 817.565 177.506 819.76 182.374C821.748 186.783 824.782 189.55 829.178 189.55C833.841 189.55 839.114 186.438 843.954 182.541C851.916 176.13 860.805 165.905 869.803 154.205C882.833 137.261 896.854 116.228 910.823 95.2752ZM910.823 95.2752C924.791 74.322 938.813 53.2891 951.842 36.3457C960.84 24.645 969.73 14.4205 977.691 8.00974C982.532 4.11231 987.804 1.00001 992.467 1.00001C996.863 1.00001 999.898 3.76765 1001.89 8.17623C1004.08 13.044 1005.1 20.1307 1005.1 28.6125C1005.1 46.3988 1000.62 70.7631 992.52 95.1162C987.52 110.147 981.132 125.192 973.542 138.725C966.348 151.552 958.142 162.9 949.106 171.605C937.127 183.145 924.2 189.55 910.823 189.55C897.445 189.55 884.518 183.145 872.539 171.605C863.504 162.9 855.297 151.552 848.103 138.725C840.513 125.192 834.126 110.147 829.125 95.1162C821.023 70.763 816.548 46.3988 816.548 28.6125C816.548 20.1307 817.565 13.044 819.76 8.17623C821.748 3.76764 824.782 1 829.178 1C833.841 1 839.114 4.11231 843.954 8.00973C851.916 14.4204 860.805 24.645 869.803 36.3457C882.833 53.2891 896.854 74.322 910.823 95.2752Z" stroke="#404040" stroke-linecap="round" stroke-linejoin="round"/>
<path d="M1073.64 95.2752C1087.61 116.228 1101.63 137.261 1114.66 154.205C1123.66 165.905 1132.54 176.13 1140.51 182.541C1145.35 186.438 1150.62 189.55 1155.28 189.55C1159.68 189.55 1162.71 186.783 1164.7 182.374C1166.9 177.506 1167.91 170.42 1167.91 161.938C1167.91 144.152 1163.44 119.787 1155.34 95.4341C1150.33 80.4034 1143.95 65.3585 1136.36 51.8257C1129.16 38.9979 1120.96 27.65 1111.92 18.9455C1099.94 7.40534 1087.01 1 1073.64 1C1060.26 1 1047.33 7.40534 1035.35 18.9455C1026.32 27.65 1018.11 38.9979 1010.92 51.8257C1003.33 65.3585 996.94 80.4034 991.94 95.4341C983.838 119.787 979.362 144.152 979.362 161.938C979.362 170.42 980.38 177.506 982.575 182.374C984.562 186.783 987.597 189.55 991.993 189.55C996.656 189.55 1001.93 186.438 1006.77 182.541C1014.73 176.13 1023.62 165.905 1032.62 154.205C1045.65 137.261 1059.67 116.228 1073.64 95.2752ZM1073.64 95.2752C1087.61 74.322 1101.63 53.2891 1114.66 36.3457C1123.66 24.645 1132.54 14.4205 1140.51 8.00974C1145.35 4.11231 1150.62 1.00001 1155.28 1.00001C1159.68 1.00001 1162.71 3.76765 1164.7 8.17623C1166.9 13.044 1167.91 20.1307 1167.91 28.6125C1167.91 46.3988 1163.44 70.7631 1155.34 95.1162C1150.33 110.147 1143.95 125.192 1136.36 138.725C1129.16 151.552 1120.96 162.9 1111.92 171.605C1099.94 183.145 1087.01 189.55 1073.64 189.55C1060.26 189.55 1047.33 183.145 1035.35 171.605C1026.32 162.9 1018.11 151.552 1010.92 138.725C1003.33 125.192 996.94 110.147 991.94 95.1162C983.838 70.763 979.362 46.3988 979.362 28.6125C979.362 20.1307 980.38 13.044 982.575 8.17623C984.562 3.76764 987.597 1 991.993 1C996.656 1 1001.93 4.11231 1006.77 8.00973C1014.73 14.4204 1023.62 24.645 1032.62 36.3457C1045.65 53.2891 1059.67 74.322 1073.64 95.2752Z" stroke="#404040" stroke-linecap="round" stroke-linejoin="round"/>
</svg>
