<svg width="663" height="499" viewBox="0 0 663 499" fill="none" xmlns="http://www.w3.org/2000/svg">
<mask id="mask0_6287_12738" style="mask-type:alpha" maskUnits="userSpaceOnUse" x="0" y="-200" width="694" height="699">
<path d="M306.068 149.494C306.068 53.2325 327.746 -33.879 362.757 -96.8985C397.782 -159.943 446.048 -198.723 499.188 -198.723C552.328 -198.723 600.595 -159.943 635.62 -96.8985C670.63 -33.879 692.309 53.2325 692.309 149.494C692.309 245.756 670.63 332.867 635.62 395.887C600.595 458.932 552.328 497.711 499.188 497.711C446.048 497.711 397.782 458.932 362.757 395.887C327.746 332.867 306.068 245.756 306.068 149.494Z" stroke="#2A2A2A" stroke-width="1.5"/>
<path d="M306.068 149.494C306.068 53.1854 318.59 -33.9755 338.817 -97.0337C348.931 -128.567 360.959 -154.031 374.279 -171.596C387.609 -189.173 402.137 -198.723 417.251 -198.723C432.365 -198.723 446.893 -189.173 460.223 -171.596C473.543 -154.031 485.571 -128.567 495.685 -97.0337C515.911 -33.9755 528.434 53.1854 528.434 149.494C528.434 245.803 515.911 332.964 495.685 396.022C485.571 427.555 473.543 453.019 460.223 470.584C446.893 488.161 432.365 497.711 417.251 497.711C402.137 497.711 387.609 488.161 374.279 470.584C360.959 453.019 348.931 427.555 338.817 396.022C318.59 332.964 306.068 245.803 306.068 149.494Z" stroke="#2A2A2A" stroke-width="1.5"/>
<path d="M225.592 149.494C225.592 53.1489 230.095 -34.0627 237.372 -97.1768C241.011 -128.739 245.341 -154.248 250.141 -171.852C252.542 -180.66 255.049 -187.446 257.623 -192.015C258.911 -194.299 260.195 -195.993 261.461 -197.108C262.722 -198.219 263.926 -198.723 265.079 -198.723C266.233 -198.723 267.436 -198.219 268.697 -197.108C269.963 -195.993 271.248 -194.299 272.535 -192.015C275.109 -187.446 277.617 -180.66 280.018 -171.852C284.817 -154.248 289.147 -128.739 292.786 -97.1768C300.063 -34.0627 304.566 53.1489 304.566 149.494C304.566 245.839 300.063 333.051 292.786 396.165C289.147 427.727 284.817 453.236 280.018 470.84C277.617 479.648 275.109 486.434 272.535 491.003C271.248 493.288 269.963 494.981 268.697 496.096C267.436 497.207 266.233 497.711 265.079 497.711C263.926 497.711 262.722 497.207 261.461 496.096C260.195 494.981 258.911 493.288 257.623 491.003C255.049 486.434 252.542 479.648 250.141 470.84C245.341 453.236 241.011 427.727 237.372 396.165C230.095 333.051 225.592 245.839 225.592 149.494Z" stroke="#2A2A2A" stroke-width="1.5"/>
<path d="M1.72635 149.494C1.72635 53.2077 18.7462 -33.9275 46.2334 -96.963C59.9775 -128.482 76.3238 -153.942 94.4371 -171.511C112.547 -189.077 132.385 -198.723 153.146 -198.723C173.908 -198.723 193.746 -189.077 211.856 -171.511C229.969 -153.942 246.315 -128.482 260.059 -96.963C287.547 -33.9275 304.566 53.2077 304.566 149.494C304.566 245.78 287.547 332.916 260.059 395.951C246.315 427.47 229.969 452.93 211.856 470.499C193.746 488.065 173.908 497.711 153.146 497.711C132.385 497.711 112.547 488.065 94.4371 470.499C76.3238 452.93 59.9775 427.47 46.2334 395.951C18.7462 332.916 1.72635 245.78 1.72635 149.494Z" stroke="#2A2A2A" stroke-width="1.5"/>
<circle cx="634.533" cy="391.651" r="18.2713" transform="rotate(180 634.533 391.651)" fill="white" stroke="#2A2A2A" stroke-width="1.5"/>
<circle cx="521.865" cy="257.037" r="18.2713" transform="rotate(180 521.865 257.037)" fill="white" stroke="#2A2A2A" stroke-width="1.5"/>
<circle cx="226.307" cy="106.33" r="18.2713" transform="rotate(180 226.307 106.33)" fill="black" stroke="#2A2A2A" stroke-width="1.5"/>
<circle cx="25.8498" cy="333.123" r="18.2713" transform="rotate(180 25.8498 333.123)" fill="black" stroke="#2A2A2A" stroke-width="1.5"/>
</mask>
<g mask="url(#mask0_6287_12738)">
<rect x="-69.2539" y="39.0254" width="930.578" height="507.721" fill="#91A0A1"/>
</g>
</svg>
