<svg width="552" height="278" viewBox="0 0 552 278" fill="none" xmlns="http://www.w3.org/2000/svg">
<path opacity="0.35" d="M275.999 138.277C257.553 92.7316 212.271 1.64093 178.707 1.64093C167.278 1.64093 158.851 12.2035 152.722 27.9334M275.999 138.277C258.156 184.304 213.718 276.359 178.707 276.359C166.961 276.359 158.388 265.997 152.217 250.489M275.999 138.277C250.875 108.241 202.01 58.3968 152.722 27.9334M275.999 138.277C251.004 168.862 201.989 219.772 152.217 250.489M275.999 138.277C294.445 92.7316 339.727 1.64093 373.291 1.64093C384.721 1.64093 393.147 12.2035 399.276 27.9334M275.999 138.277C293.842 184.304 338.281 276.359 373.291 276.359C385.037 276.359 393.611 265.997 399.782 250.489M275.999 138.277C301.123 108.241 349.989 58.3968 399.276 27.9334M275.999 138.277C300.994 168.862 350.009 219.772 399.782 250.489M152.722 27.9334C140.852 58.3968 137.598 108.241 137.837 138.277C137.196 168.862 139.994 219.772 152.217 250.489M152.722 27.9334C127.272 12.2035 101.709 1.64093 79.2448 1.64093C13.2741 1.64093 -0.0839547 92.7316 1.48333 138.277C-0.566271 184.304 12.1166 276.359 79.2448 276.359C101.766 276.359 127.088 265.997 152.217 250.489M399.276 27.9334C411.146 58.3968 414.4 108.241 414.161 138.277C414.802 168.862 412.004 219.772 399.782 250.489M399.276 27.9334C424.726 12.2035 450.289 1.64093 472.754 1.64093C538.724 1.64093 552.082 92.7316 550.515 138.277C552.565 184.304 539.882 276.359 472.754 276.359C450.232 276.359 424.91 265.997 399.782 250.489M275.999 2.88803V273.686" stroke="#91A0A1" stroke-width="1.5"/>
</svg>
