<svg
  xmlns="http://www.w3.org/2000/svg"
  width="898"
  height="450"
  viewBox="0 0 898 450"
  fill="none"
>
  <path
    opacity="0.35"
    d="M449 223.823C418.961 149.652 345.219 1.31104 290.56 1.31104C271.947 1.31104 258.224 18.5122 248.243 44.1284M449 223.823C419.943 298.778 347.575 448.689 290.56 448.689C271.431 448.689 257.47 431.815 247.421 406.56M449 223.823C408.086 174.909 328.508 93.7379 248.243 44.1284M449 223.823C408.295 273.631 328.475 356.537 247.421 406.56M449 223.823C479.039 149.652 552.781 1.31104 607.44 1.31104C626.053 1.31104 639.776 18.5122 649.757 44.1284M449 223.823C478.057 298.778 550.425 448.689 607.44 448.689C626.569 448.689 640.53 431.815 650.579 406.56M449 223.823C489.915 174.909 569.492 93.7379 649.757 44.1284M449 223.823C489.705 273.631 569.526 356.537 650.579 406.56M248.243 44.1284C228.913 93.7379 223.615 174.909 224.003 223.823C222.959 273.631 227.516 356.537 247.421 406.56M248.243 44.1284C206.798 18.5122 165.169 1.31104 128.586 1.31104C21.1526 1.31104 -0.601042 149.652 1.95128 223.823C-1.38649 298.778 19.2675 448.689 128.586 448.689C165.261 448.689 206.498 431.815 247.421 406.56M649.757 44.1284C669.087 93.7379 674.386 174.909 673.997 223.823C675.041 273.631 670.484 356.537 650.579 406.56M649.757 44.1284C691.202 18.5122 732.831 1.31104 769.414 1.31104C876.847 1.31104 898.601 149.652 896.049 223.823C899.386 298.778 878.733 448.689 769.414 448.689C732.739 448.689 691.502 431.815 650.579 406.56M449 3.34193V444.337"
    stroke="#91A0A1"
    stroke-width="1.5"
  />
</svg>
