<svg width="236" height="51" viewBox="0 0 236 51" fill="none" xmlns="http://www.w3.org/2000/svg">
<path d="M141.221 51C141.083 51 140.97 50.9533 140.97 50.8958V0.104179C140.97 0.046672 141.083 0 141.221 0C141.36 0 141.472 0.046672 141.472 0.104179V50.8958C141.472 50.9533 141.36 51 141.221 51Z" fill="white"/>
<path d="M145.949 1.07871L145.973 25.499L145.961 49.9193C145.961 49.9693 145.864 50.0101 145.742 50.0097C145.621 50.0093 145.523 49.9693 145.524 49.9193L145.5 25.499L145.512 1.07871C145.512 1.02871 145.609 0.987868 145.731 0.988284C145.852 0.988284 145.95 1.02871 145.949 1.07871Z" fill="white"/>
<path d="M150.427 2.05253L150.472 25.4973L150.449 48.9421C150.449 48.985 150.365 49.02 150.261 49.02C150.158 49.02 150.074 48.985 150.074 48.9421L150.028 25.4973L150.051 2.05253C150.051 2.00961 150.136 1.97461 150.239 1.97461C150.343 1.97461 150.427 2.00961 150.427 2.05253Z" fill="white"/>
<path d="M154.908 3.02719L154.948 14.2618L154.973 25.4964L154.966 36.731L154.943 47.9657C154.943 48.0023 154.872 48.0319 154.783 48.0319C154.695 48.0319 154.624 48.0023 154.624 47.9657L154.583 36.731L154.558 25.4964L154.565 14.2618L154.588 3.02719C154.588 2.99052 154.66 2.96094 154.748 2.96094C154.837 2.96094 154.908 2.99052 154.908 3.02719Z" fill="white"/>
<path d="M159.391 4.00074L159.426 9.37427L159.442 14.7478L159.473 25.4949L159.464 36.2419L159.459 41.6155L159.436 46.989C159.436 47.0198 159.376 47.0444 159.301 47.0444C159.227 47.0444 159.168 47.0198 159.168 46.989L159.133 41.6155L159.117 36.2419L159.085 25.4949L159.094 14.7478L159.1 9.37427L159.123 4.00074C159.123 3.9699 159.183 3.94531 159.257 3.94531C159.332 3.94531 159.391 3.9699 159.391 4.00074Z" fill="white"/>
<path d="M163.877 4.97553L163.918 10.1053L163.937 15.235L163.974 25.4941L163.965 35.7532L163.96 40.883L163.934 46.0127C163.934 46.0381 163.885 46.0586 163.823 46.0581C163.763 46.0581 163.714 46.0377 163.714 46.0127L163.673 40.883L163.654 35.7532L163.616 25.4941L163.625 15.235L163.631 10.1053L163.657 4.97553C163.657 4.95011 163.706 4.92969 163.767 4.92969C163.827 4.92969 163.877 4.95011 163.877 4.97511V4.97553Z" fill="white"/>
<path d="M168.363 5.94878L168.409 10.8343L168.431 15.7199L168.474 25.4914L168.466 35.263L168.461 40.1485L168.433 45.0341C168.433 45.0545 168.393 45.0708 168.343 45.0708C168.294 45.0708 168.255 45.0545 168.255 45.0341L168.21 40.1485L168.188 35.263L168.145 25.4914L168.153 15.7199L168.158 10.8343L168.186 5.94878C168.186 5.92836 168.226 5.91211 168.275 5.91211C168.324 5.91211 168.363 5.92836 168.363 5.94878Z" fill="white"/>
<path d="M172.853 6.92328L172.903 11.5651L172.927 16.2068L172.974 25.4904L172.967 34.774L172.963 39.4157L172.934 44.0575C172.934 44.0734 172.903 44.0863 172.864 44.0863C172.826 44.0863 172.795 44.0734 172.795 44.0575L172.746 39.4157L172.722 34.774L172.675 25.4904L172.682 16.2068L172.686 11.5651L172.715 6.92328C172.715 6.90745 172.746 6.89453 172.784 6.89453C172.822 6.89453 172.853 6.90745 172.853 6.92328Z" fill="white"/>
<path d="M177.345 7.89862L177.397 12.2966L177.424 16.6946L177.475 25.4906L177.47 34.2866L177.467 38.6846L177.438 43.0826C177.438 43.0947 177.415 43.1043 177.385 43.1043C177.356 43.1043 177.333 43.0947 177.333 43.0826L177.281 38.6846L177.255 34.2866L177.204 25.4906L177.209 16.6946L177.212 12.2966L177.241 7.89862C177.241 7.88654 177.264 7.87695 177.293 7.87695C177.322 7.87695 177.345 7.88654 177.345 7.89862Z" fill="white"/>
<path d="M181.839 8.87242L181.893 13.0266L181.922 17.1809L181.976 25.4889L181.974 33.7969L181.972 37.9512L181.944 42.1054C181.944 42.1141 181.927 42.1208 181.906 42.1208C181.886 42.1208 181.869 42.1137 181.869 42.1054L181.815 37.9516L181.787 33.7974L181.733 25.4893L181.735 17.1813L181.737 13.0271L181.765 8.87284C181.765 8.86409 181.782 8.85742 181.802 8.85742C181.822 8.85742 181.839 8.86451 181.839 8.87284V8.87242Z" fill="white"/>
<path d="M186.336 9.84594L186.39 13.756L186.419 17.666L186.476 25.4865V33.307V37.217L186.45 41.127C186.45 41.1329 186.439 41.1374 186.424 41.1374C186.41 41.1374 186.4 41.1328 186.399 41.1274L186.345 37.2174L186.316 33.3074L186.26 25.4869V17.6664V13.7564L186.286 9.84636C186.286 9.84052 186.297 9.83594 186.311 9.83594C186.325 9.83594 186.335 9.84052 186.336 9.84594Z" fill="white"/>
<path d="M190.834 10.8222L190.888 14.4885L190.917 18.1547L190.976 25.4872L190.981 32.8198L190.983 36.486L190.96 40.1523C190.96 40.1556 190.954 40.1581 190.946 40.1581C190.938 40.1581 190.932 40.1556 190.932 40.1523L190.878 36.486L190.849 32.8198L190.791 25.4872L190.786 18.1547L190.784 14.4885L190.806 10.8222C190.806 10.8189 190.812 10.8164 190.82 10.8164C190.828 10.8164 190.834 10.8189 190.834 10.8222Z" fill="white"/>
<path d="M195.335 11.7955L195.387 15.2179L195.417 18.6404L195.476 25.4854L195.486 32.3303L195.49 35.7528L195.472 39.1753C195.472 39.1753 195.469 39.1778 195.466 39.1778C195.463 39.1778 195.46 39.1765 195.46 39.1753L195.407 35.7528L195.377 32.3303L195.319 25.4854L195.309 18.6404L195.305 15.2179L195.323 11.7955C195.323 11.7955 195.326 11.793 195.329 11.793C195.332 11.793 195.335 11.7942 195.335 11.7955Z" fill="white"/>
<path d="M199.838 12.7695L199.888 15.9482L199.917 19.1265L199.976 25.4835L199.992 31.8409L199.999 35.0192L199.986 38.1979L199.937 35.0192L199.907 31.8409L199.849 25.4839L199.833 19.1265L199.825 15.9482L199.838 12.7695Z" fill="white"/>
<path d="M141.337 0.0117188L199.838 12.7698L141.106 0.19674L141.337 0.0117188Z" fill="white"/>
<path d="M141.316 5.65039L199.854 15.5944L141.127 5.84375L141.316 5.65039Z" fill="white"/>
<path d="M141.29 11.291L199.871 18.4202L141.152 11.491L141.29 11.291Z" fill="white"/>
<path d="M141.265 16.9316L199.887 21.2455L141.178 17.1371L141.265 16.9316Z" fill="white"/>
<path d="M141.235 22.5742L199.904 24.0711L141.207 22.7822L141.235 22.5742Z" fill="white"/>
<path d="M141.206 28.2175L199.92 26.8965L141.236 28.4254L141.206 28.2175Z" fill="white"/>
<path d="M141.178 33.8631L199.937 29.7227L141.265 34.0686L141.178 33.8631Z" fill="white"/>
<path d="M141.151 39.5081L199.953 32.5469L141.292 39.7085L141.151 39.5081Z" fill="white"/>
<path d="M141.127 45.1562L199.97 35.373L141.316 45.3492L141.127 45.1562Z" fill="white"/>
<path d="M141.106 50.8048L199.986 38.1992L141.337 50.9894L141.106 50.8048Z" fill="white"/>
<g opacity="0.6">
<path d="M101.221 51C101.083 51 100.97 50.9533 100.97 50.8958V0.104179C100.97 0.046672 101.083 0 101.221 0C101.36 0 101.472 0.046672 101.472 0.104179V50.8958C101.472 50.9533 101.36 51 101.221 51Z" fill="white"/>
<path d="M105.949 1.07871L105.973 25.499L105.961 49.9193C105.961 49.9693 105.864 50.0101 105.742 50.0097C105.621 50.0093 105.523 49.9693 105.524 49.9193L105.5 25.499L105.512 1.07871C105.512 1.02871 105.609 0.987868 105.731 0.988284C105.852 0.988284 105.95 1.02871 105.949 1.07871Z" fill="white"/>
<path d="M110.427 2.05253L110.472 25.4973L110.449 48.9421C110.449 48.985 110.365 49.02 110.261 49.02C110.158 49.02 110.074 48.985 110.074 48.9421L110.028 25.4973L110.051 2.05253C110.051 2.00961 110.136 1.97461 110.239 1.97461C110.343 1.97461 110.427 2.00961 110.427 2.05253Z" fill="white"/>
<path d="M114.908 3.02719L114.948 14.2618L114.973 25.4964L114.966 36.731L114.943 47.9657C114.943 48.0023 114.872 48.0319 114.783 48.0319C114.695 48.0319 114.624 48.0023 114.624 47.9657L114.583 36.731L114.558 25.4964L114.565 14.2618L114.588 3.02719C114.588 2.99052 114.66 2.96094 114.748 2.96094C114.837 2.96094 114.908 2.99052 114.908 3.02719Z" fill="white"/>
<path d="M119.391 4.00074L119.426 9.37427L119.442 14.7478L119.473 25.4949L119.464 36.2419L119.459 41.6155L119.436 46.989C119.436 47.0198 119.376 47.0444 119.301 47.0444C119.227 47.0444 119.168 47.0198 119.168 46.989L119.133 41.6155L119.117 36.2419L119.085 25.4949L119.094 14.7478L119.1 9.37427L119.123 4.00074C119.123 3.9699 119.183 3.94531 119.257 3.94531C119.332 3.94531 119.391 3.9699 119.391 4.00074Z" fill="white"/>
<path d="M123.877 4.97553L123.918 10.1053L123.937 15.235L123.974 25.4941L123.965 35.7532L123.96 40.883L123.934 46.0127C123.934 46.0381 123.885 46.0586 123.823 46.0581C123.763 46.0581 123.714 46.0377 123.714 46.0127L123.673 40.883L123.654 35.7532L123.616 25.4941L123.625 15.235L123.631 10.1053L123.657 4.97553C123.657 4.95011 123.706 4.92969 123.767 4.92969C123.827 4.92969 123.877 4.95011 123.877 4.97511V4.97553Z" fill="white"/>
<path d="M128.363 5.94878L128.409 10.8343L128.431 15.7199L128.474 25.4914L128.466 35.263L128.461 40.1485L128.433 45.0341C128.433 45.0545 128.393 45.0708 128.343 45.0708C128.294 45.0708 128.255 45.0545 128.255 45.0341L128.21 40.1485L128.188 35.263L128.145 25.4914L128.153 15.7199L128.158 10.8343L128.186 5.94878C128.186 5.92836 128.226 5.91211 128.275 5.91211C128.324 5.91211 128.363 5.92836 128.363 5.94878Z" fill="white"/>
<path d="M132.853 6.92328L132.903 11.5651L132.927 16.2068L132.974 25.4904L132.967 34.774L132.963 39.4157L132.934 44.0575C132.934 44.0734 132.903 44.0863 132.864 44.0863C132.826 44.0863 132.795 44.0734 132.795 44.0575L132.746 39.4157L132.722 34.774L132.675 25.4904L132.682 16.2068L132.686 11.5651L132.715 6.92328C132.715 6.90745 132.746 6.89453 132.784 6.89453C132.822 6.89453 132.853 6.90745 132.853 6.92328Z" fill="white"/>
<path d="M137.345 7.89862L137.397 12.2966L137.424 16.6946L137.475 25.4906L137.47 34.2866L137.467 38.6846L137.438 43.0826C137.438 43.0947 137.415 43.1043 137.385 43.1043C137.356 43.1043 137.333 43.0947 137.333 43.0826L137.281 38.6846L137.255 34.2866L137.204 25.4906L137.209 16.6946L137.212 12.2966L137.241 7.89862C137.241 7.88654 137.264 7.87695 137.293 7.87695C137.322 7.87695 137.345 7.88654 137.345 7.89862Z" fill="white"/>
<path d="M141.839 8.87242L141.893 13.0266L141.922 17.1809L141.976 25.4889L141.974 33.7969L141.972 37.9512L141.944 42.1054C141.944 42.1141 141.927 42.1208 141.906 42.1208C141.886 42.1208 141.869 42.1137 141.869 42.1054L141.815 37.9516L141.787 33.7974L141.733 25.4893L141.735 17.1813L141.737 13.0271L141.765 8.87284C141.765 8.86409 141.782 8.85742 141.802 8.85742C141.822 8.85742 141.839 8.86451 141.839 8.87284V8.87242Z" fill="white"/>
<path d="M146.336 9.84594L146.39 13.756L146.419 17.666L146.476 25.4865V33.307V37.217L146.45 41.127C146.45 41.1329 146.439 41.1374 146.424 41.1374C146.41 41.1374 146.4 41.1328 146.399 41.1274L146.345 37.2174L146.316 33.3074L146.26 25.4869V17.6664V13.7564L146.286 9.84636C146.286 9.84052 146.297 9.83594 146.311 9.83594C146.325 9.83594 146.335 9.84052 146.336 9.84594Z" fill="white"/>
<path d="M150.834 10.8222L150.888 14.4885L150.917 18.1547L150.976 25.4872L150.981 32.8198L150.983 36.486L150.96 40.1523C150.96 40.1556 150.954 40.1581 150.946 40.1581C150.938 40.1581 150.932 40.1556 150.932 40.1523L150.878 36.486L150.849 32.8198L150.791 25.4872L150.786 18.1547L150.784 14.4885L150.806 10.8222C150.806 10.8189 150.812 10.8164 150.82 10.8164C150.828 10.8164 150.834 10.8189 150.834 10.8222Z" fill="white"/>
<path d="M155.335 11.7955L155.387 15.2179L155.417 18.6404L155.476 25.4854L155.486 32.3303L155.49 35.7528L155.472 39.1753C155.472 39.1753 155.469 39.1778 155.466 39.1778C155.463 39.1778 155.46 39.1765 155.46 39.1753L155.407 35.7528L155.377 32.3303L155.319 25.4854L155.309 18.6404L155.305 15.2179L155.323 11.7955C155.323 11.7955 155.326 11.793 155.329 11.793C155.332 11.793 155.335 11.7942 155.335 11.7955Z" fill="white"/>
<path d="M159.838 12.7695L159.888 15.9482L159.917 19.1265L159.976 25.4835L159.992 31.8409L159.999 35.0192L159.986 38.1979L159.937 35.0192L159.907 31.8409L159.849 25.4839L159.833 19.1265L159.825 15.9482L159.838 12.7695Z" fill="white"/>
<path d="M101.337 0.0117188L159.838 12.7698L101.106 0.19674L101.337 0.0117188Z" fill="white"/>
<path d="M101.316 5.65039L159.854 15.5944L101.127 5.84375L101.316 5.65039Z" fill="white"/>
<path d="M101.29 11.291L159.871 18.4202L101.152 11.491L101.29 11.291Z" fill="white"/>
<path d="M101.265 16.9316L159.887 21.2455L101.178 17.1371L101.265 16.9316Z" fill="white"/>
<path d="M101.235 22.5742L159.904 24.0711L101.207 22.7822L101.235 22.5742Z" fill="white"/>
<path d="M101.206 28.2175L159.92 26.8965L101.236 28.4254L101.206 28.2175Z" fill="white"/>
<path d="M101.178 33.8631L159.937 29.7227L101.265 34.0686L101.178 33.8631Z" fill="white"/>
<path d="M101.151 39.5081L159.953 32.5469L101.292 39.7085L101.151 39.5081Z" fill="white"/>
<path d="M101.127 45.1562L159.97 35.373L101.316 45.3492L101.127 45.1562Z" fill="white"/>
<path d="M101.106 50.8048L159.986 38.1992L101.337 50.9894L101.106 50.8048Z" fill="white"/>
</g>
<g opacity="0.4">
<path d="M51.2213 51C51.0827 51 50.9702 50.9533 50.9702 50.8958V0.104179C50.9702 0.046672 51.0827 0 51.2213 0C51.3599 0 51.4724 0.046672 51.4724 0.104179V50.8958C51.4724 50.9533 51.3599 51 51.2213 51Z" fill="white"/>
<path d="M55.949 1.07871L55.9731 25.499L55.961 49.9193C55.961 49.9693 55.8636 50.0101 55.7421 50.0097C55.6205 50.0093 55.5231 49.9693 55.5241 49.9193L55.5 25.499L55.5121 1.07871C55.5121 1.02871 55.6095 0.987868 55.731 0.988284C55.8516 0.988284 55.95 1.02871 55.949 1.07871Z" fill="white"/>
<path d="M60.4271 2.05253L60.4723 25.4973L60.4492 48.9421C60.4492 48.985 60.3648 49.02 60.2614 49.02C60.1579 49.02 60.0735 48.985 60.0735 48.9421L60.0283 25.4973L60.0514 2.05253C60.0514 2.00961 60.1358 1.97461 60.2393 1.97461C60.3427 1.97461 60.4271 2.00961 60.4271 2.05253Z" fill="white"/>
<path d="M64.9079 3.02719L64.9481 14.2618L64.9732 25.4964L64.9662 36.731L64.9431 47.9657C64.9431 48.0023 64.8717 48.0319 64.7833 48.0319C64.695 48.0319 64.6236 48.0023 64.6236 47.9657L64.5835 36.731L64.5583 25.4964L64.5654 14.2618L64.5885 3.02719C64.5885 2.99052 64.6598 2.96094 64.7482 2.96094C64.8366 2.96094 64.9079 2.99052 64.9079 3.02719Z" fill="white"/>
<path d="M69.3908 4.00074L69.426 9.37427L69.442 14.7478L69.4732 25.4949L69.4641 36.2419L69.4591 41.6155L69.436 46.989C69.436 47.0198 69.3757 47.0444 69.3014 47.0444C69.2271 47.0444 69.1678 47.0198 69.1678 46.989L69.1327 41.6155L69.1166 36.2419L69.0854 25.4949L69.0945 14.7478L69.0995 9.37427L69.1226 4.00074C69.1226 3.9699 69.1829 3.94531 69.2572 3.94531C69.3315 3.94531 69.3908 3.9699 69.3908 4.00074Z" fill="white"/>
<path d="M73.8766 4.97553L73.9178 10.1053L73.9369 15.235L73.974 25.4941L73.965 35.7532L73.96 40.883L73.9339 46.0127C73.9339 46.0381 73.8846 46.0586 73.8234 46.0581C73.7631 46.0581 73.7139 46.0377 73.7139 46.0127L73.6727 40.883L73.6536 35.7532L73.6165 25.4941L73.6255 15.235L73.6305 10.1053L73.6566 4.97553C73.6566 4.95011 73.7059 4.92969 73.7671 4.92969C73.8274 4.92969 73.8766 4.95011 73.8766 4.97511V4.97553Z" fill="white"/>
<path d="M78.3635 5.94878L78.4087 10.8343L78.4308 15.7199L78.474 25.4914L78.466 35.263L78.4609 40.1485L78.4328 45.0341C78.4328 45.0545 78.3926 45.0708 78.3434 45.0708C78.2942 45.0708 78.255 45.0545 78.255 45.0341L78.2098 40.1485L78.1877 35.263L78.1445 25.4914L78.1526 15.7199L78.1576 10.8343L78.1857 5.94878C78.1857 5.92836 78.2259 5.91211 78.2751 5.91211C78.3243 5.91211 78.3635 5.92836 78.3635 5.94878Z" fill="white"/>
<path d="M82.8534 6.92328L82.9026 11.5651L82.9267 16.2068L82.9739 25.4904L82.9669 34.774L82.9628 39.4157L82.9337 44.0575C82.9337 44.0734 82.9026 44.0863 82.8644 44.0863C82.8262 44.0863 82.7951 44.0734 82.7951 44.0575L82.7459 39.4157L82.7218 34.774L82.6746 25.4904L82.6816 16.2068L82.6856 11.5651L82.7147 6.92328C82.7147 6.90745 82.7459 6.89453 82.784 6.89453C82.8222 6.89453 82.8534 6.90745 82.8534 6.92328Z" fill="white"/>
<path d="M87.3452 7.89862L87.3975 12.2966L87.4236 16.6946L87.4748 25.4906L87.4698 34.2866L87.4668 38.6846L87.4376 43.0826C87.4376 43.0947 87.4145 43.1043 87.3854 43.1043C87.3563 43.1043 87.3332 43.0947 87.3332 43.0826L87.281 38.6846L87.2548 34.2866L87.2036 25.4906L87.2086 16.6946L87.2116 12.2966L87.2408 7.89862C87.2408 7.88654 87.2639 7.87695 87.293 7.87695C87.3221 7.87695 87.3452 7.88654 87.3452 7.89862Z" fill="white"/>
<path d="M91.8391 8.87242L91.8934 13.0266L91.9215 17.1809L91.9757 25.4889L91.9737 33.7969L91.9717 37.9512L91.9436 42.1054C91.9436 42.1141 91.9265 42.1208 91.9064 42.1208C91.8863 42.1208 91.8693 42.1137 91.8693 42.1054L91.815 37.9516L91.7869 33.7974L91.7327 25.4893L91.7347 17.1813L91.7367 13.0271L91.7648 8.87284C91.7648 8.86409 91.7819 8.85742 91.802 8.85742C91.8221 8.85742 91.8391 8.86451 91.8391 8.87284V8.87242Z" fill="white"/>
<path d="M96.3361 9.84594L96.3903 13.756L96.4195 17.666L96.4757 25.4865V33.307V37.217L96.4496 41.127C96.4496 41.1329 96.4386 41.1374 96.4245 41.1374C96.4104 41.1374 96.4004 41.1328 96.3994 41.1274L96.3451 37.2174L96.316 33.3074L96.2598 25.4869V17.6664V13.7564L96.2859 9.84636C96.2859 9.84052 96.2969 9.83594 96.311 9.83594C96.3251 9.83594 96.3351 9.84052 96.3361 9.84594Z" fill="white"/>
<path d="M100.834 10.8222L100.888 14.4885L100.917 18.1547L100.976 25.4872L100.981 32.8198L100.983 36.486L100.96 40.1523C100.96 40.1556 100.954 40.1581 100.946 40.1581C100.938 40.1581 100.932 40.1556 100.932 40.1523L100.878 36.486L100.849 32.8198L100.791 25.4872L100.786 18.1547L100.784 14.4885L100.806 10.8222C100.806 10.8189 100.812 10.8164 100.82 10.8164C100.828 10.8164 100.834 10.8189 100.834 10.8222Z" fill="white"/>
<path d="M105.335 11.7955L105.387 15.2179L105.417 18.6404L105.476 25.4854L105.486 32.3303L105.49 35.7528L105.472 39.1753C105.472 39.1753 105.469 39.1778 105.466 39.1778C105.463 39.1778 105.46 39.1765 105.46 39.1753L105.407 35.7528L105.377 32.3303L105.319 25.4854L105.309 18.6404L105.305 15.2179L105.323 11.7955C105.323 11.7955 105.326 11.793 105.329 11.793C105.332 11.793 105.335 11.7942 105.335 11.7955Z" fill="white"/>
<path d="M109.838 12.7695L109.888 15.9482L109.917 19.1265L109.976 25.4835L109.992 31.8409L109.999 35.0192L109.986 38.1979L109.937 35.0192L109.907 31.8409L109.849 25.4839L109.833 19.1265L109.825 15.9482L109.838 12.7695Z" fill="white"/>
<path d="M51.3367 0.0117188L109.838 12.7698L51.1057 0.19674L51.3367 0.0117188Z" fill="white"/>
<path d="M51.3158 5.65039L109.854 15.5944L51.127 5.84375L51.3158 5.65039Z" fill="white"/>
<path d="M51.2905 11.291L109.871 18.4202L51.1519 11.491L51.2905 11.291Z" fill="white"/>
<path d="M51.2646 16.9316L109.887 21.2455L51.1782 17.1371L51.2646 16.9316Z" fill="white"/>
<path d="M51.2352 22.5742L109.904 24.0711L51.207 22.7822L51.2352 22.5742Z" fill="white"/>
<path d="M51.2063 28.2175L109.92 26.8965L51.2364 28.4254L51.2063 28.2175Z" fill="white"/>
<path d="M51.1782 33.8631L109.937 29.7227L51.2646 34.0686L51.1782 33.8631Z" fill="white"/>
<path d="M51.1509 39.5081L109.953 32.5469L51.2915 39.7085L51.1509 39.5081Z" fill="white"/>
<path d="M51.127 45.1562L109.97 35.373L51.3158 45.3492L51.127 45.1562Z" fill="white"/>
<path d="M51.1057 50.8048L109.986 38.1992L51.3367 50.9894L51.1057 50.8048Z" fill="white"/>
</g>
<g opacity="0.2">
<path d="M1.22133 51C1.08271 51 0.970215 50.9533 0.970215 50.8958V0.104179C0.970215 0.046672 1.08271 0 1.22133 0C1.35994 0 1.47244 0.046672 1.47244 0.104179V50.8958C1.47244 50.9533 1.35994 51 1.22133 51Z" fill="white"/>
<path d="M5.94899 1.07871L5.97309 25.499L5.96104 49.9193C5.96104 49.9693 5.86361 50.0101 5.74207 50.0097C5.62053 50.0093 5.5231 49.9693 5.52411 49.9193L5.5 25.499L5.51205 1.07871C5.51205 1.02871 5.60949 0.987868 5.73102 0.988284C5.85156 0.988284 5.94999 1.02871 5.94899 1.07871Z" fill="white"/>
<path d="M10.4271 2.05253L10.4723 25.4973L10.4492 48.9421C10.4492 48.985 10.3648 49.02 10.2614 49.02C10.1579 49.02 10.0735 48.985 10.0735 48.9421L10.0283 25.4973L10.0514 2.05253C10.0514 2.00961 10.1358 1.97461 10.2393 1.97461C10.3427 1.97461 10.4271 2.00961 10.4271 2.05253Z" fill="white"/>
<path d="M14.9081 3.02719L14.9483 14.2618L14.9734 25.4964L14.9664 36.731L14.9433 47.9657C14.9433 48.0023 14.872 48.0319 14.7836 48.0319C14.6952 48.0319 14.6239 48.0023 14.6239 47.9657L14.5837 36.731L14.5586 25.4964L14.5656 14.2618L14.5887 3.02719C14.5887 2.99052 14.66 2.96094 14.7484 2.96094C14.8368 2.96094 14.9081 2.99052 14.9081 3.02719Z" fill="white"/>
<path d="M19.3908 4.00074L19.426 9.37427L19.442 14.7478L19.4732 25.4949L19.4641 36.2419L19.4591 41.6155L19.436 46.989C19.436 47.0198 19.3757 47.0444 19.3014 47.0444C19.2271 47.0444 19.1678 47.0198 19.1678 46.989L19.1327 41.6155L19.1166 36.2419L19.0854 25.4949L19.0945 14.7478L19.0995 9.37427L19.1226 4.00074C19.1226 3.9699 19.1829 3.94531 19.2572 3.94531C19.3315 3.94531 19.3908 3.9699 19.3908 4.00074Z" fill="white"/>
<path d="M23.8769 4.97553L23.918 10.1053L23.9371 15.235L23.9743 25.4941L23.9652 35.7532L23.9602 40.883L23.9341 46.0127C23.9341 46.0381 23.8849 46.0586 23.8236 46.0581C23.7633 46.0581 23.7141 46.0377 23.7141 46.0127L23.6729 40.883L23.6539 35.7532L23.6167 25.4941L23.6257 15.235L23.6308 10.1053L23.6569 4.97553C23.6569 4.95011 23.7061 4.92969 23.7674 4.92969C23.8276 4.92969 23.8769 4.95011 23.8769 4.97511V4.97553Z" fill="white"/>
<path d="M28.3635 5.94878L28.4087 10.8343L28.4308 15.7199L28.474 25.4914L28.466 35.263L28.4609 40.1485L28.4328 45.0341C28.4328 45.0545 28.3926 45.0708 28.3434 45.0708C28.2942 45.0708 28.255 45.0545 28.255 45.0341L28.2098 40.1485L28.1877 35.263L28.1445 25.4914L28.1526 15.7199L28.1576 10.8343L28.1857 5.94878C28.1857 5.92836 28.2259 5.91211 28.2751 5.91211C28.3243 5.91211 28.3635 5.92836 28.3635 5.94878Z" fill="white"/>
<path d="M32.8536 6.92328L32.9028 11.5651L32.9269 16.2068L32.9741 25.4904L32.9671 34.774L32.9631 39.4157L32.934 44.0575C32.934 44.0734 32.9028 44.0863 32.8646 44.0863C32.8265 44.0863 32.7953 44.0734 32.7953 44.0575L32.7461 39.4157L32.722 34.774L32.6748 25.4904L32.6818 16.2068L32.6859 11.5651L32.715 6.92328C32.715 6.90745 32.7461 6.89453 32.7843 6.89453C32.8225 6.89453 32.8536 6.90745 32.8536 6.92328Z" fill="white"/>
<path d="M37.3452 7.89862L37.3975 12.2966L37.4236 16.6946L37.4748 25.4906L37.4698 34.2866L37.4668 38.6846L37.4376 43.0826C37.4376 43.0947 37.4145 43.1043 37.3854 43.1043C37.3563 43.1043 37.3332 43.0947 37.3332 43.0826L37.281 38.6846L37.2548 34.2866L37.2036 25.4906L37.2086 16.6946L37.2116 12.2966L37.2408 7.89862C37.2408 7.88654 37.2639 7.87695 37.293 7.87695C37.3221 7.87695 37.3452 7.88654 37.3452 7.89862Z" fill="white"/>
<path d="M41.8391 8.87242L41.8934 13.0266L41.9215 17.1809L41.9757 25.4889L41.9737 33.7969L41.9717 37.9512L41.9436 42.1054C41.9436 42.1141 41.9265 42.1208 41.9064 42.1208C41.8863 42.1208 41.8693 42.1137 41.8693 42.1054L41.815 37.9516L41.7869 33.7974L41.7327 25.4893L41.7347 17.1813L41.7367 13.0271L41.7648 8.87284C41.7648 8.86409 41.7819 8.85742 41.802 8.85742C41.8221 8.85742 41.8391 8.86451 41.8391 8.87284V8.87242Z" fill="white"/>
<path d="M46.3361 9.84594L46.3903 13.756L46.4195 17.666L46.4757 25.4865V33.307V37.217L46.4496 41.127C46.4496 41.1329 46.4386 41.1374 46.4245 41.1374C46.4104 41.1374 46.4004 41.1328 46.3994 41.1274L46.3451 37.2174L46.316 33.3074L46.2598 25.4869V17.6664V13.7564L46.2859 9.84636C46.2859 9.84052 46.2969 9.83594 46.311 9.83594C46.3251 9.83594 46.3351 9.84052 46.3361 9.84594Z" fill="white"/>
<path d="M50.8339 10.8222L50.8882 14.4885L50.9173 18.1547L50.9755 25.4872L50.9806 32.8198L50.9826 36.486L50.9605 40.1523C50.9605 40.1556 50.9544 40.1581 50.9464 40.1581C50.9384 40.1581 50.9324 40.1556 50.9324 40.1523L50.8781 36.486L50.849 32.8198L50.7907 25.4872L50.7857 18.1547L50.7837 14.4885L50.8058 10.8222C50.8058 10.8189 50.8118 10.8164 50.8199 10.8164C50.8279 10.8164 50.8339 10.8189 50.8339 10.8222Z" fill="white"/>
<path d="M55.3351 11.7955L55.3873 15.2179L55.4174 18.6404L55.4757 25.4854L55.4857 32.3303L55.4898 35.7528L55.4717 39.1753C55.4717 39.1753 55.4687 39.1778 55.4656 39.1778C55.4626 39.1778 55.4596 39.1765 55.4596 39.1753L55.4074 35.7528L55.3772 32.3303L55.319 25.4854L55.3089 18.6404L55.3049 15.2179L55.323 11.7955C55.323 11.7955 55.326 11.793 55.329 11.793C55.3321 11.793 55.3351 11.7942 55.3351 11.7955Z" fill="white"/>
<path d="M59.8378 12.7695L59.888 15.9482L59.9171 19.1265L59.9764 25.4835L59.9924 31.8409L59.9995 35.0192L59.9864 38.1979L59.9372 35.0192L59.9071 31.8409L59.8488 25.4839L59.8327 19.1265L59.8247 15.9482L59.8378 12.7695Z" fill="white"/>
<path d="M1.33649 0.0117188L59.8375 12.7698L1.10547 0.19674L1.33649 0.0117188Z" fill="white"/>
<path d="M1.31579 5.65039L59.854 15.5944L1.12695 5.84375L1.31579 5.65039Z" fill="white"/>
<path d="M1.28998 11.291L59.8703 18.4202L1.15137 11.491L1.28998 11.291Z" fill="white"/>
<path d="M1.26412 16.9316L59.8867 21.2455L1.17773 17.1371L1.26412 16.9316Z" fill="white"/>
<path d="M1.23516 22.5742L59.9039 24.0711L1.20703 22.7822L1.23516 22.5742Z" fill="white"/>
<path d="M1.20605 28.2175L59.92 26.8965L1.23619 28.4254L1.20605 28.2175Z" fill="white"/>
<path d="M1.17773 33.8631L59.9369 29.7227L1.26412 34.0686L1.17773 33.8631Z" fill="white"/>
<path d="M1.15088 39.5081L59.9532 32.5469L1.2915 39.7085L1.15088 39.5081Z" fill="white"/>
<path d="M1.12695 45.1562L59.9705 35.373L1.31579 45.3492L1.12695 45.1562Z" fill="white"/>
<path d="M1.10547 50.8048L59.9862 38.1992L1.33649 50.9894L1.10547 50.8048Z" fill="white"/>
</g>
<path d="M182.715 51C182.577 51 182.464 50.9533 182.464 50.8958V0.104179C182.464 0.046672 182.577 0 182.715 0C182.854 0 182.966 0.046672 182.966 0.104179V50.8958C182.966 50.9533 182.854 51 182.715 51Z" fill="white"/>
<path d="M185.616 1.07871L185.638 25.499L185.623 49.9193C185.623 49.9693 185.526 50.0101 185.404 50.0097C185.284 50.0097 185.185 49.9693 185.186 49.9193L185.164 25.499L185.179 1.07871C185.179 1.02871 185.277 0.987868 185.398 0.988284C185.519 0.988284 185.617 1.02871 185.616 1.07871Z" fill="white"/>
<path d="M188.269 2.05253L188.31 25.4973L188.283 48.9421C188.283 48.985 188.199 49.02 188.095 49.02C187.992 49.02 187.907 48.985 187.907 48.9421L187.866 25.4973L187.893 2.05253C187.893 2.00961 187.978 1.97461 188.081 1.97461C188.185 1.97461 188.269 2.00961 188.269 2.05253Z" fill="white"/>
<path d="M190.924 3.02719L190.961 14.2618L190.982 25.4964L190.971 36.731L190.944 47.9657C190.944 48.0023 190.873 48.0319 190.784 48.0319C190.696 48.0319 190.624 48.0023 190.624 47.9657L190.587 36.731L190.566 25.4964L190.577 14.2618L190.604 3.02719C190.604 2.99052 190.676 2.96094 190.764 2.96094C190.852 2.96094 190.924 2.99052 190.924 3.02719Z" fill="white"/>
<path d="M193.58 4.00074L193.612 9.37427L193.626 14.7478L193.654 25.4949L193.641 36.2419L193.633 41.6155L193.607 46.989C193.607 47.0198 193.547 47.0444 193.473 47.0444C193.398 47.0444 193.339 47.0198 193.339 46.989L193.307 41.6155L193.293 36.2419L193.266 25.4949L193.279 14.7478L193.286 9.37427L193.312 4.00074C193.312 3.9699 193.372 3.94531 193.447 3.94531C193.521 3.94531 193.58 3.9699 193.58 4.00074Z" fill="white"/>
<path d="M196.239 4.97512L196.277 10.1049L196.293 15.2346L196.325 25.4937L196.31 35.7528L196.302 40.8826L196.273 46.0123C196.273 46.0377 196.224 46.0581 196.163 46.0577C196.102 46.0577 196.053 46.0373 196.053 46.0123L196.015 40.8826L195.999 35.7528L195.967 25.4937L195.982 15.2346L195.99 10.1049L196.019 4.97512C196.019 4.9497 196.068 4.92928 196.13 4.92969C196.19 4.92969 196.239 4.95011 196.239 4.97512Z" fill="white"/>
<path d="M198.901 5.94878L198.943 10.8343L198.961 15.7199L198.997 25.4914L198.982 35.263L198.974 40.1485L198.942 45.0341C198.942 45.0545 198.902 45.0708 198.853 45.0708C198.803 45.0708 198.764 45.0545 198.764 45.0341L198.722 40.1485L198.704 35.263L198.668 25.4914L198.683 15.7199L198.691 10.8343L198.723 5.94878C198.723 5.92836 198.763 5.91211 198.812 5.91211C198.862 5.91211 198.901 5.92836 198.901 5.94878Z" fill="white"/>
<path d="M201.564 6.92328L201.609 11.5651L201.629 16.2068L201.668 25.4904L201.653 34.774L201.645 39.4157L201.612 44.0575C201.612 44.0734 201.581 44.0863 201.543 44.0863C201.504 44.0863 201.473 44.0734 201.473 44.0575L201.428 39.4157L201.408 34.774L201.369 25.4904L201.384 16.2068L201.392 11.5651L201.425 6.92328C201.425 6.90745 201.456 6.89453 201.494 6.89453C201.533 6.89453 201.564 6.90745 201.564 6.92328Z" fill="white"/>
<path d="M204.23 7.89862L204.277 12.2966L204.298 16.6946L204.34 25.4906L204.326 34.2866L204.318 38.6846L204.284 43.0826C204.284 43.0947 204.261 43.1043 204.232 43.1043C204.203 43.1043 204.18 43.0947 204.18 43.0826L204.132 38.6846L204.111 34.2866L204.069 25.4906L204.083 16.6946L204.091 12.2966L204.125 7.89862C204.125 7.88654 204.148 7.87695 204.178 7.87695C204.207 7.87695 204.23 7.88654 204.23 7.89862Z" fill="white"/>
<path d="M206.897 8.87284L206.946 13.0271L206.968 17.1813L207.011 25.4893L206.998 33.7974L206.991 37.9516L206.958 42.1058C206.958 42.1146 206.941 42.1212 206.92 42.1212C206.9 42.1212 206.883 42.1141 206.883 42.1058L206.834 37.9516L206.812 33.7974L206.769 25.4893L206.782 17.1813L206.789 13.0271L206.822 8.87284C206.822 8.86409 206.839 8.85742 206.859 8.85742C206.879 8.85742 206.896 8.86451 206.896 8.87284H206.897Z" fill="white"/>
<path d="M209.568 9.84594L209.617 13.756L209.64 17.666L209.685 25.4865L209.674 33.307L209.668 37.217L209.636 41.127C209.636 41.1329 209.625 41.1374 209.611 41.1374C209.597 41.1374 209.587 41.1328 209.586 41.1274L209.537 37.2174L209.514 33.3074L209.469 25.4869L209.48 17.6664L209.486 13.7564L209.518 9.84636C209.518 9.84052 209.529 9.83594 209.543 9.83594C209.557 9.83594 209.567 9.84052 209.568 9.84594Z" fill="white"/>
<path d="M212.24 10.8222L212.287 14.4885L212.31 18.1547L212.355 25.4872L212.347 32.8198L212.343 36.486L212.314 40.1523C212.314 40.1556 212.308 40.1581 212.3 40.1581C212.292 40.1581 212.286 40.1556 212.286 40.1523L212.239 36.486L212.216 32.8198L212.171 25.4872L212.179 18.1547L212.183 14.4885L212.212 10.8222C212.212 10.8189 212.218 10.8164 212.226 10.8164C212.234 10.8164 212.24 10.8189 212.24 10.8222Z" fill="white"/>
<path d="M214.915 11.7955L214.96 15.2179L214.983 18.6404L215.028 25.4854L215.024 32.3303L215.022 35.7528L214.997 39.1753C214.997 39.1753 214.994 39.1778 214.991 39.1778C214.988 39.1778 214.985 39.1765 214.985 39.1753L214.94 35.7528L214.917 32.3303L214.872 25.4854L214.876 18.6404L214.878 15.2179L214.903 11.7955C214.903 11.7955 214.906 11.793 214.909 11.793C214.912 11.793 214.915 11.7942 214.915 11.7955Z" fill="white"/>
<path d="M217.592 12.7695L217.634 15.9482L217.656 19.1265L217.7 25.4835V31.8409V35.0192L217.68 38.1979L217.638 35.0192L217.616 31.8409L217.572 25.4839V19.1265V15.9482L217.592 12.7695Z" fill="white"/>
<path d="M182.88 0.0234375L217.591 12.7674L182.549 0.180122L182.88 0.0234375Z" fill="white"/>
<path d="M182.856 5.66016L217.602 15.5938L182.573 5.83268L182.856 5.66016Z" fill="white"/>
<path d="M182.824 11.2949L217.61 18.4178L182.605 11.4824L182.824 11.2949Z" fill="white"/>
<path d="M182.785 16.9316L217.621 21.2426L182.645 17.1317L182.785 16.9316Z" fill="white"/>
<path d="M182.739 22.5742L217.631 24.0706L182.691 22.7817L182.739 22.5742Z" fill="white"/>
<path d="M182.69 28.2159L217.641 26.8945L182.739 28.423L182.69 28.2159Z" fill="white"/>
<path d="M182.645 33.8621L217.651 29.7188L182.785 34.0617L182.645 33.8621Z" fill="white"/>
<path d="M182.604 39.5128L217.66 32.5449L182.824 39.6999L182.604 39.5128Z" fill="white"/>
<path d="M182.573 45.1647L217.67 35.3711L182.857 45.3368L182.573 45.1647Z" fill="white"/>
<path d="M182.549 50.8147L217.68 38.1953L182.88 50.9714L182.549 50.8147Z" fill="white"/>
<path d="M224.209 51C224.07 51 223.958 50.9533 223.958 50.8958V0.104179C223.958 0.046672 224.07 0 224.209 0C224.347 0 224.46 0.046672 224.46 0.104179V50.8958C224.46 50.9533 224.347 51 224.209 51Z" fill="white"/>
<path d="M225.284 1.07871L225.303 25.499L225.286 49.9193C225.286 49.9693 225.188 50.0101 225.067 50.0097C224.946 50.0097 224.848 49.9693 224.849 49.9193L224.83 25.499L224.847 1.07871C224.847 1.02871 224.944 0.987868 225.066 0.988284C225.187 0.988701 225.285 1.02871 225.284 1.07871Z" fill="white"/>
<path d="M226.11 2.05253L226.146 25.4973L226.114 48.9421C226.114 48.985 226.03 49.02 225.926 49.02C225.823 49.02 225.739 48.985 225.739 48.9421L225.702 25.4973L225.735 2.05253C225.735 2.00961 225.819 1.97461 225.922 1.97461C226.026 1.97461 226.11 2.00961 226.11 2.05253Z" fill="white"/>
<path d="M226.938 3.02719L226.971 14.2618L226.989 25.4964L226.975 36.731L226.945 47.9657C226.945 48.0023 226.874 48.0319 226.785 48.0319C226.697 48.0319 226.625 48.0023 226.625 47.9657L226.592 36.731L226.574 25.4964L226.588 14.2618L226.618 3.02719C226.618 2.99052 226.69 2.96094 226.778 2.96094C226.867 2.96094 226.938 2.99052 226.938 3.02719Z" fill="white"/>
<path d="M227.769 4.00074L227.799 9.37427L227.811 14.7478L227.833 25.4949L227.815 36.2419L227.806 41.6155L227.778 46.989C227.778 47.0198 227.717 47.0444 227.643 47.0444C227.569 47.0444 227.509 47.0198 227.509 46.989L227.479 41.6155L227.467 36.2419L227.445 25.4949L227.463 14.7478L227.472 9.37427L227.5 4.00074C227.5 3.9699 227.561 3.94531 227.635 3.94531C227.709 3.94531 227.769 3.9699 227.769 4.00074Z" fill="white"/>
<path d="M228.603 4.97512L228.638 10.1049L228.651 15.2346L228.677 25.4937L228.657 35.7528L228.646 40.8826L228.614 46.0123C228.614 46.0377 228.564 46.0581 228.503 46.0577C228.443 46.0577 228.394 46.0373 228.394 46.0123L228.359 40.8826L228.345 35.7528L228.319 25.4937L228.339 15.2346L228.35 10.1049L228.383 4.97512C228.383 4.9497 228.432 4.92928 228.493 4.92969C228.553 4.92969 228.603 4.95011 228.603 4.97512Z" fill="white"/>
<path d="M229.437 5.94878L229.476 10.8343L229.491 15.7199L229.52 25.4914L229.498 35.263L229.486 40.1485L229.451 45.0341C229.451 45.0545 229.411 45.0708 229.361 45.0708C229.312 45.0708 229.273 45.0541 229.273 45.0341L229.234 40.1485L229.219 35.263L229.19 25.4914L229.212 15.7199L229.224 10.8343L229.259 5.94878C229.259 5.92836 229.299 5.91211 229.348 5.91211C229.398 5.91211 229.437 5.92878 229.437 5.94878Z" fill="white"/>
<path d="M230.275 6.92328L230.316 11.5651L230.332 16.2068L230.363 25.4904L230.34 34.774L230.328 39.4157L230.291 44.0575C230.291 44.0734 230.26 44.0863 230.222 44.0863C230.183 44.0863 230.152 44.0734 230.152 44.0575L230.111 39.4157L230.095 34.774L230.064 25.4904L230.087 16.2068L230.099 11.5651L230.136 6.92328C230.136 6.90745 230.167 6.89453 230.206 6.89453C230.244 6.89453 230.275 6.90745 230.275 6.92328Z" fill="white"/>
<path d="M231.113 7.89862L231.157 12.2966L231.174 16.6946L231.206 25.4906L231.182 34.2866L231.17 38.6846L231.131 43.0826C231.131 43.0947 231.108 43.1043 231.079 43.1043C231.05 43.1043 231.027 43.0947 231.027 43.0826L230.984 38.6846L230.967 34.2866L230.935 25.4906L230.959 16.6946L230.971 12.2966L231.009 7.89862C231.009 7.88654 231.032 7.87695 231.061 7.87695C231.09 7.87695 231.113 7.88654 231.113 7.89862Z" fill="white"/>
<path d="M231.956 8.87284L231.999 13.0271L232.017 17.1813L232.05 25.4893L232.027 33.7974L232.015 37.9516L231.976 42.1058C231.976 42.1146 231.959 42.1212 231.939 42.1212C231.919 42.1212 231.902 42.1141 231.902 42.1058L231.859 37.9516L231.842 33.7974L231.809 25.4893L231.832 17.1813L231.844 13.0271L231.882 8.87284C231.882 8.86409 231.899 8.85742 231.919 8.85742C231.939 8.85742 231.956 8.86451 231.956 8.87284Z" fill="white"/>
<path d="M232.8 9.84594L232.843 13.756L232.86 17.666L232.893 25.4865L232.871 33.307L232.859 37.217L232.822 41.127C232.822 41.1329 232.811 41.1374 232.797 41.1374C232.783 41.1374 232.773 41.1328 232.772 41.1274L232.729 37.2174L232.712 33.3074L232.678 25.4869L232.701 17.6664L232.713 13.7564L232.75 9.84636C232.75 9.84052 232.761 9.83594 232.775 9.83594C232.789 9.83594 232.799 9.84052 232.8 9.84594Z" fill="white"/>
<path d="M233.646 10.8222L233.687 14.4885L233.704 18.1547L233.736 25.4872L233.716 32.8198L233.705 36.486L233.67 40.1523C233.67 40.1556 233.664 40.1581 233.656 40.1581C233.648 40.1581 233.642 40.1556 233.642 40.1523L233.6 36.486L233.583 32.8198L233.551 25.4872L233.571 18.1547L233.582 14.4885L233.618 10.8222C233.618 10.8189 233.624 10.8164 233.632 10.8164C233.64 10.8164 233.646 10.8189 233.646 10.8222Z" fill="white"/>
<path d="M234.494 11.7955L234.533 15.2179L234.549 18.6404L234.58 25.4854L234.562 32.3303L234.553 35.7528L234.521 39.1753C234.521 39.1753 234.518 39.1778 234.514 39.1778C234.511 39.1778 234.508 39.1765 234.508 39.1753L234.47 35.7528L234.454 32.3303L234.423 25.4854L234.441 18.6404L234.45 15.2179L234.482 11.7955C234.482 11.7955 234.485 11.793 234.488 11.793C234.491 11.793 234.494 11.7942 234.494 11.7955Z" fill="white"/>
<path d="M235.345 12.7695L235.379 15.9482L235.394 19.1265L235.422 25.4835L235.408 31.8409L235.4 35.0192L235.373 38.1979L235.338 35.0192L235.324 31.8409L235.295 25.4839L235.31 19.1265L235.317 15.9482L235.345 12.7695Z" fill="white"/>
<path d="M224.444 0.0683594L235.345 12.7698L223.973 0.140034L224.444 0.0683594Z" fill="white"/>
<path d="M224.436 5.70312L235.348 15.5947L223.981 5.79147L224.436 5.70312Z" fill="white"/>
<path d="M224.418 11.334L235.351 18.4206L223.999 11.4486L224.418 11.334Z" fill="white"/>
<path d="M224.378 16.957L235.354 21.245L224.039 17.1112L224.378 16.957Z" fill="white"/>
<path d="M224.281 22.5781L235.357 24.0708L224.136 22.7777L224.281 22.5781Z" fill="white"/>
<path d="M224.135 28.2221L235.36 26.8965L224.282 28.4212L224.135 28.2221Z" fill="white"/>
<path d="M224.039 33.887L235.364 29.7207L224.379 34.0408L224.039 33.887Z" fill="white"/>
<path d="M223.998 39.551L235.367 32.5469L224.419 39.6656L223.998 39.551Z" fill="white"/>
<path d="M223.981 45.2083L235.37 35.373L224.436 45.2967L223.981 45.2083Z" fill="white"/>
<path d="M223.973 50.8595L235.373 38.1973L224.444 50.9308L223.973 50.8595Z" fill="white"/>
</svg>
