<svg xmlns="http://www.w3.org/2000/svg" width="500" height="500" viewBox="0 0 269 268" fill="none">
<path d="M134.501 134C154.251 163.626 174.076 193.364 192.498 217.32C205.22 233.864 217.789 248.32 229.046 257.384C235.89 262.895 243.345 267.295 249.938 267.295C256.153 267.295 260.444 263.382 263.254 257.149C266.357 250.266 267.796 240.246 267.796 228.254C267.796 203.106 261.468 168.658 250.013 134.225C242.943 112.973 233.911 91.7012 223.18 72.5672C213.008 54.43 201.405 38.3853 188.63 26.0781C171.693 9.76155 153.415 0.705085 134.501 0.705084C115.587 0.705083 97.3089 9.76154 80.3723 26.078C67.5972 38.3853 55.9941 54.43 45.822 72.5672C35.091 91.7011 26.0594 112.973 18.9893 134.225C7.53409 168.658 1.20605 203.106 1.20604 228.254C1.20604 240.246 2.6447 250.266 5.74794 257.149C8.55846 263.382 12.8487 267.295 19.0642 267.295C25.6574 267.295 33.1122 262.895 39.956 257.384C51.2131 248.32 63.7815 233.864 76.5037 217.32C94.9259 193.364 114.751 163.626 134.501 134ZM134.501 134C154.251 104.375 174.076 74.6362 192.498 50.6802C205.221 34.1365 217.789 19.6802 229.046 10.6161C235.89 5.10555 243.345 0.705089 249.938 0.705089C256.153 0.705089 260.444 4.61823 263.254 10.8515C266.357 17.7341 267.796 27.7538 267.796 39.7462C267.796 64.8941 261.468 99.3426 250.013 133.775C242.943 155.027 233.911 176.299 223.18 195.433C213.008 213.57 201.405 229.615 188.63 241.922C171.693 258.239 153.415 267.295 134.501 267.295C115.587 267.295 97.3089 258.239 80.3723 241.922C67.5972 229.615 55.9941 213.57 45.822 195.433C35.091 176.299 26.0594 155.027 18.9893 133.775C7.5341 99.3425 1.20605 64.8941 1.20605 39.7462C1.20605 27.7538 2.64471 17.734 5.74795 10.8515C8.55847 4.61822 12.8487 0.705079 19.0642 0.705079C25.6574 0.705079 33.1122 5.10554 39.956 10.6161C51.2131 19.6801 63.7815 34.1365 76.5037 50.6802C94.9259 74.6362 114.751 104.375 134.501 134Z" stroke="#404040" stroke-linecap="round" stroke-linejoin="round"/>
</svg>