<svg width="49" height="49" viewBox="0 0 49 49" fill="none" xmlns="http://www.w3.org/2000/svg">
<rect x="0.627014" y="0.5" width="48" height="48" rx="24" fill="white"/>
<path d="M42.5261 24.9446C42.4909 25.4506 42.4785 25.9597 42.4168 26.462C41.762 31.795 39.282 36.0684 34.9285 39.1976C31.6764 41.5357 28.0059 42.627 24.0081 42.4882C19.385 42.3287 15.3993 40.6029 12.0572 37.3942C12.0265 37.3646 12.0272 37.2464 12.0572 37.2148C16.2257 33.0273 20.398 28.8441 24.5743 24.665C24.673 24.5744 24.8008 24.522 24.9346 24.5173C30.799 24.51 36.6632 24.5079 42.5274 24.5111L42.5261 24.9446Z" fill="#121B4B"/>
<path d="M25.012 6.5C25.505 6.53756 25.9991 6.55945 26.4904 6.61268C29.3672 6.92543 32.0167 7.87795 34.4389 9.47023C34.4554 9.48261 34.4711 9.4959 34.4861 9.51003L32.9549 11.0425C32.6216 11.3761 32.2905 11.7119 31.9532 12.0412C31.9319 12.0551 31.9075 12.0634 31.8822 12.0657C31.8569 12.0679 31.8315 12.0638 31.8081 12.0539C29.3695 10.6469 26.7447 9.99972 23.9334 10.1125C17.6438 10.3667 12.1606 14.8344 10.6525 20.9606C9.71902 24.7564 10.2383 28.3624 12.1606 31.766C12.179 31.7983 12.18 31.8697 12.1579 31.8903C11.3235 32.7334 10.4861 33.5743 9.64586 34.4131C9.63768 34.4213 9.62751 34.428 9.60841 34.4434C9.5293 34.3206 9.44969 34.2017 9.37479 34.0803C7.30172 30.7193 6.38658 27.0662 6.6827 23.1232C7.29998 14.9264 13.383 8.2111 21.4774 6.78506C22.2959 6.64104 23.1329 6.60447 23.961 6.51816L24.1301 6.5H25.012Z" fill="#121B4B"/>
<path d="M34.11 17.3664C34.1114 16.6179 34.3714 15.8929 34.8458 15.315C35.3202 14.7371 35.9796 14.3419 36.7117 14.1967C37.4439 14.0515 38.2036 14.1653 38.8616 14.5187C39.5195 14.8721 40.035 15.4433 40.3204 16.135C40.6057 16.8267 40.6432 17.5962 40.4265 18.3125C40.2098 19.0288 39.7523 19.6477 39.1319 20.0638C38.5115 20.4799 37.7665 20.6675 37.0237 20.5947C36.2809 20.5218 35.5862 20.193 35.0578 19.6643C34.757 19.3626 34.5184 19.0044 34.3557 18.61C34.1931 18.2157 34.1096 17.7931 34.11 17.3664V17.3664Z" fill="#121B4B"/>
</svg>
