<svg width="88" height="41" viewBox="0 0 88 41" fill="none" xmlns="http://www.w3.org/2000/svg">
<g id="Logomark-dark">
<g id="Mark">
<path d="M69.3545 40.1691H76.1804C79.1074 40.1691 81.7854 39.1032 83.8475 37.3384L69.3545 22.8455V40.1691Z" fill="#101010"/>
<path d="M85.5829 35.4985C87.0862 33.5185 87.9783 31.0491 87.9783 28.3713V20.5813H70.6657L85.5829 35.4985Z" fill="#101010"/>
<path d="M87.9783 18.0532V11.8543C87.9783 9.01324 86.9741 6.40677 85.3013 4.37043L71.6185 18.0532H87.9783Z" fill="#101010"/>
<path d="M83.4975 2.59892C81.4865 1.00692 78.9445 0.0563965 76.1804 0.0563965H69.3545V16.7419L83.4975 2.59892Z" fill="#101010"/>
<path d="M66.8264 0.0563965H11.7979C5.28208 0.0563965 0 5.33848 0 11.8543V18.0532H64.5623L51.1672 4.65812L52.9548 2.87048L66.8264 16.7421V0.0563965Z" fill="#101010"/>
<path d="M0 20.5813V28.3713C0 34.887 5.28209 40.1691 11.7979 40.1691H66.8264V22.8453L52.9729 36.6988L51.1853 34.9112L65.5151 20.5813H0Z" fill="#101010"/>
</g>
</g>
</svg>
