<svg width="24" height="24" viewBox="0 0 24 24" fill="none" xmlns="http://www.w3.org/2000/svg">
<g clip-path="url(#clip0_5063_3424)">
<path d="M24 12C24 5.37258 18.6274 0 12 0C5.37258 0 0 5.37258 0 12C0 18.6274 5.37258 24 12 24C18.6274 24 24 18.6274 24 12Z" fill="black"/>
<path d="M14.5869 6.63867L11.2381 8.56201V14.5647L9.3904 15.6358L7.53133 14.5639V12.4207L9.3904 11.3592L10.5857 12.0524V10.3185L9.37993 9.63394L6.03197 11.579V15.4265L9.39127 17.3611L12.7392 15.4265V9.42461L14.5983 8.35261L16.4564 9.42461V11.5581L14.5983 12.6397L13.3925 11.9403V13.6656L14.5869 14.3545L17.9679 12.4312V8.56201L14.5869 6.63867Z" fill="white"/>
</g>
<defs>
<clipPath id="clip0_5063_3424">
<rect width="24" height="24" fill="white"/>
</clipPath>
</defs>
</svg>
