<svg width="18" height="18" viewBox="0 0 18 18" fill="none" xmlns="http://www.w3.org/2000/svg">
<g id="Social Icons">
<g id="Vector">
<path d="M3.74556 1.66797H14.0651V16.3425H12.5503V9.62063H12.5354C12.368 7.76286 10.8067 6.30702 8.90533 6.30702C7.00396 6.30702 5.44263 7.76286 5.27521 9.62063H5.26035V16.3425H3.74556V1.66797Z" fill="#1D1E1F"/>
<path d="M1 3.75081L1.61538 5.83365H2.13609V14.2597C1.87466 14.2597 1.66272 14.4716 1.66272 14.7331V15.3011H1.56805C1.30661 15.3011 1.09467 15.513 1.09467 15.7745V16.3425H6.39645V15.7745C6.39645 15.513 6.18451 15.3011 5.92308 15.3011H5.8284V14.7331C5.8284 14.4716 5.61647 14.2597 5.35503 14.2597H4.78698V3.75081H1Z" fill="#1D1E1F"/>
<path d="M12.645 14.2597C12.3835 14.2597 12.1716 14.4716 12.1716 14.7331V15.3011H12.0769C11.8155 15.3011 11.6035 15.513 11.6035 15.7745V16.3425H16.9053V15.7745C16.9053 15.513 16.6934 15.3011 16.432 15.3011H16.3373V14.7331C16.3373 14.4716 16.1253 14.2597 15.8639 14.2597V5.83365H16.3846L17 3.75081H13.213V14.2597H12.645Z" fill="#1D1E1F"/>
</g>
</g>
</svg>
