<svg width="18" height="18" viewBox="0 0 18 18" fill="none" xmlns="http://www.w3.org/2000/svg">
<g id="Social Icons">
<path id="Vector" fill-rule="evenodd" clip-rule="evenodd" d="M12.0146 6.60143C12.6705 6.05426 13.4021 5.84608 14.1039 5.89871C14.8524 5.95485 15.545 6.30571 16.0624 6.81534C16.5797 7.32501 16.9351 8.00671 16.992 8.74242C17.0494 9.48483 16.8008 10.2624 16.1454 10.9448C16.0855 11.0077 16.0243 11.0697 15.9617 11.1309C12.9891 14.0592 9.04042 14.0669 9.00002 14.0669H8.99982C8.97963 14.0669 5.01846 14.0668 2.03814 11.1306L2.0375 11.1299C1.97597 11.0689 1.91538 11.0075 1.8557 10.9458L1.85522 10.9453C1.19954 10.2634 0.950721 9.48605 1.00794 8.74364C1.06465 8.00805 1.4198 7.32627 1.93698 6.81643C2.4541 6.30662 3.14671 5.95547 3.89537 5.8991C4.59705 5.84626 5.32888 6.05418 5.98504 6.60108C6.0556 5.75756 6.42319 5.10106 6.95678 4.64972C7.52587 4.16834 8.2675 3.93359 8.99984 3.93359C9.73219 3.93359 10.4738 4.16834 11.0429 4.64972C11.5765 5.10112 11.9441 5.75774 12.0146 6.60143ZM9.13592 13.7701L9.13579 13.7663H9.13603L9.13592 13.7701ZM8.86377 13.7701L8.86366 13.7663H8.8639L8.86377 13.7701ZM11.2332 9.70398C11.1518 9.70398 11.1236 9.81969 11.1755 9.88099C11.2673 9.98955 11.3226 10.1292 11.3226 10.2816C11.3226 10.6274 11.0381 10.9077 10.6872 10.9077C10.3361 10.9077 10.0516 10.6274 10.0516 10.2816C10.0516 10.2631 10.0271 10.2539 10.016 10.2689C9.9158 10.4045 9.84813 10.5568 9.82032 10.7167C9.80468 10.8067 9.7304 10.8813 9.63707 10.8813H9.58553C9.46372 10.8813 9.36324 10.784 9.38121 10.6661C9.50445 9.85826 10.3126 9.27236 11.2332 9.27236C12.1537 9.27236 12.9618 9.85826 13.085 10.6661C13.1029 10.784 13.0025 10.8813 12.8807 10.8813C12.7588 10.8813 12.6624 10.7835 12.6359 10.6671C12.5155 10.1376 11.9569 9.70398 11.2332 9.70398ZM5.58977 10.2816C5.58977 10.2572 5.55767 10.2441 5.54256 10.2635C5.43541 10.4013 5.36241 10.5573 5.3315 10.7217C5.31326 10.8187 5.23308 10.8995 5.13216 10.8995H5.09434C4.97253 10.8995 4.87205 10.8022 4.89 10.6843C5.01318 9.87605 5.82142 9.29059 6.74191 9.29059C7.66239 9.29059 8.47063 9.87605 8.5938 10.6843C8.61178 10.8022 8.51128 10.8995 8.38947 10.8995C8.26768 10.8995 8.17121 10.8017 8.14476 10.6854C8.02434 10.1555 7.46583 9.72221 6.74191 9.72221C6.6761 9.72221 6.65202 9.81323 6.69607 9.86105C6.79842 9.97219 6.86078 10.1197 6.86078 10.2816C6.86078 10.6274 6.57626 10.9077 6.22528 10.9077C5.87429 10.9077 5.58977 10.6274 5.58977 10.2816ZM9.70681 11.7915C9.7929 11.7072 9.92595 11.6662 10.0328 11.7233C10.1397 11.7805 10.1803 11.9131 10.1033 12.0055C9.85236 12.3061 9.44615 12.4967 8.99814 12.4967C8.55036 12.4967 8.14326 12.3082 7.89204 12.0052C7.81528 11.9127 7.85634 11.7801 7.96344 11.7233C8.07054 11.6665 8.20337 11.7081 8.28934 11.7924C8.45493 11.9552 8.70622 12.0651 8.99814 12.0651C9.28929 12.0651 9.54085 11.954 9.70681 11.7915Z" fill="#1D1E1F"/>
</g>
</svg>
